<?xml version="1.0" encoding="utf-8"?>
<svg xmlns="http://www.w3.org/2000/svg" xmlns:xlink="http://www.w3.org/1999/xlink" width="600" height="400" viewBox="0 0 2400 1600">
<defs>
  <clipPath id="clip860">
    <rect x="0" y="0" width="2400" height="1600"/>
  </clipPath>
</defs>
<path clip-path="url(#clip860)" d="M0 1600 L2400 1600 L2400 0 L0 0  Z" fill="#ffffff" fill-rule="evenodd" fill-opacity="1"/>
<defs>
  <clipPath id="clip861">
    <rect x="480" y="0" width="1681" height="1600"/>
  </clipPath>
</defs>
<path clip-path="url(#clip860)" d="M172.935 1486.45 L2015.23 1486.45 L2015.23 47.2441 L172.935 47.2441  Z" fill="#ffffff" fill-rule="evenodd" fill-opacity="1"/>
<defs>
  <clipPath id="clip862">
    <rect x="172" y="47" width="1843" height="1440"/>
  </clipPath>
</defs>
<polyline clip-path="url(#clip862)" style="stroke:#000000; stroke-linecap:round; stroke-linejoin:round; stroke-width:2; stroke-opacity:0.06; fill:none" points="186.453,1486.45 186.453,47.2441 "/>
<polyline clip-path="url(#clip862)" style="stroke:#000000; stroke-linecap:round; stroke-linejoin:round; stroke-width:2; stroke-opacity:0.06; fill:none" points="263.698,1486.45 263.698,47.2441 "/>
<polyline clip-path="url(#clip862)" style="stroke:#000000; stroke-linecap:round; stroke-linejoin:round; stroke-width:2; stroke-opacity:0.06; fill:none" points="340.943,1486.45 340.943,47.2441 "/>
<polyline clip-path="url(#clip862)" style="stroke:#000000; stroke-linecap:round; stroke-linejoin:round; stroke-width:2; stroke-opacity:0.06; fill:none" points="495.433,1486.45 495.433,47.2441 "/>
<polyline clip-path="url(#clip862)" style="stroke:#000000; stroke-linecap:round; stroke-linejoin:round; stroke-width:2; stroke-opacity:0.06; fill:none" points="572.678,1486.45 572.678,47.2441 "/>
<polyline clip-path="url(#clip862)" style="stroke:#000000; stroke-linecap:round; stroke-linejoin:round; stroke-width:2; stroke-opacity:0.06; fill:none" points="649.922,1486.45 649.922,47.2441 "/>
<polyline clip-path="url(#clip862)" style="stroke:#000000; stroke-linecap:round; stroke-linejoin:round; stroke-width:2; stroke-opacity:0.06; fill:none" points="727.167,1486.45 727.167,47.2441 "/>
<polyline clip-path="url(#clip862)" style="stroke:#000000; stroke-linecap:round; stroke-linejoin:round; stroke-width:2; stroke-opacity:0.06; fill:none" points="881.657,1486.45 881.657,47.2441 "/>
<polyline clip-path="url(#clip862)" style="stroke:#000000; stroke-linecap:round; stroke-linejoin:round; stroke-width:2; stroke-opacity:0.06; fill:none" points="958.902,1486.45 958.902,47.2441 "/>
<polyline clip-path="url(#clip862)" style="stroke:#000000; stroke-linecap:round; stroke-linejoin:round; stroke-width:2; stroke-opacity:0.06; fill:none" points="1036.15,1486.45 1036.15,47.2441 "/>
<polyline clip-path="url(#clip862)" style="stroke:#000000; stroke-linecap:round; stroke-linejoin:round; stroke-width:2; stroke-opacity:0.06; fill:none" points="1113.39,1486.45 1113.39,47.2441 "/>
<polyline clip-path="url(#clip862)" style="stroke:#000000; stroke-linecap:round; stroke-linejoin:round; stroke-width:2; stroke-opacity:0.06; fill:none" points="1267.88,1486.45 1267.88,47.2441 "/>
<polyline clip-path="url(#clip862)" style="stroke:#000000; stroke-linecap:round; stroke-linejoin:round; stroke-width:2; stroke-opacity:0.06; fill:none" points="1345.13,1486.45 1345.13,47.2441 "/>
<polyline clip-path="url(#clip862)" style="stroke:#000000; stroke-linecap:round; stroke-linejoin:round; stroke-width:2; stroke-opacity:0.06; fill:none" points="1422.37,1486.45 1422.37,47.2441 "/>
<polyline clip-path="url(#clip862)" style="stroke:#000000; stroke-linecap:round; stroke-linejoin:round; stroke-width:2; stroke-opacity:0.06; fill:none" points="1499.62,1486.45 1499.62,47.2441 "/>
<polyline clip-path="url(#clip862)" style="stroke:#000000; stroke-linecap:round; stroke-linejoin:round; stroke-width:2; stroke-opacity:0.06; fill:none" points="1654.11,1486.45 1654.11,47.2441 "/>
<polyline clip-path="url(#clip862)" style="stroke:#000000; stroke-linecap:round; stroke-linejoin:round; stroke-width:2; stroke-opacity:0.06; fill:none" points="1731.35,1486.45 1731.35,47.2441 "/>
<polyline clip-path="url(#clip862)" style="stroke:#000000; stroke-linecap:round; stroke-linejoin:round; stroke-width:2; stroke-opacity:0.06; fill:none" points="1808.6,1486.45 1808.6,47.2441 "/>
<polyline clip-path="url(#clip862)" style="stroke:#000000; stroke-linecap:round; stroke-linejoin:round; stroke-width:2; stroke-opacity:0.06; fill:none" points="1885.84,1486.45 1885.84,47.2441 "/>
<polyline clip-path="url(#clip862)" style="stroke:#000000; stroke-linecap:round; stroke-linejoin:round; stroke-width:2; stroke-opacity:0.06; fill:none" points="186.453,1486.45 186.453,47.2441 "/>
<polyline clip-path="url(#clip862)" style="stroke:#000000; stroke-linecap:round; stroke-linejoin:round; stroke-width:2; stroke-opacity:0.06; fill:none" points="263.698,1486.45 263.698,47.2441 "/>
<polyline clip-path="url(#clip862)" style="stroke:#000000; stroke-linecap:round; stroke-linejoin:round; stroke-width:2; stroke-opacity:0.06; fill:none" points="340.943,1486.45 340.943,47.2441 "/>
<polyline clip-path="url(#clip862)" style="stroke:#000000; stroke-linecap:round; stroke-linejoin:round; stroke-width:2; stroke-opacity:0.06; fill:none" points="495.433,1486.45 495.433,47.2441 "/>
<polyline clip-path="url(#clip862)" style="stroke:#000000; stroke-linecap:round; stroke-linejoin:round; stroke-width:2; stroke-opacity:0.06; fill:none" points="572.678,1486.45 572.678,47.2441 "/>
<polyline clip-path="url(#clip862)" style="stroke:#000000; stroke-linecap:round; stroke-linejoin:round; stroke-width:2; stroke-opacity:0.06; fill:none" points="649.922,1486.45 649.922,47.2441 "/>
<polyline clip-path="url(#clip862)" style="stroke:#000000; stroke-linecap:round; stroke-linejoin:round; stroke-width:2; stroke-opacity:0.06; fill:none" points="727.167,1486.45 727.167,47.2441 "/>
<polyline clip-path="url(#clip862)" style="stroke:#000000; stroke-linecap:round; stroke-linejoin:round; stroke-width:2; stroke-opacity:0.06; fill:none" points="881.657,1486.45 881.657,47.2441 "/>
<polyline clip-path="url(#clip862)" style="stroke:#000000; stroke-linecap:round; stroke-linejoin:round; stroke-width:2; stroke-opacity:0.06; fill:none" points="958.902,1486.45 958.902,47.2441 "/>
<polyline clip-path="url(#clip862)" style="stroke:#000000; stroke-linecap:round; stroke-linejoin:round; stroke-width:2; stroke-opacity:0.06; fill:none" points="1036.15,1486.45 1036.15,47.2441 "/>
<polyline clip-path="url(#clip862)" style="stroke:#000000; stroke-linecap:round; stroke-linejoin:round; stroke-width:2; stroke-opacity:0.06; fill:none" points="1113.39,1486.45 1113.39,47.2441 "/>
<polyline clip-path="url(#clip862)" style="stroke:#000000; stroke-linecap:round; stroke-linejoin:round; stroke-width:2; stroke-opacity:0.06; fill:none" points="1267.88,1486.45 1267.88,47.2441 "/>
<polyline clip-path="url(#clip862)" style="stroke:#000000; stroke-linecap:round; stroke-linejoin:round; stroke-width:2; stroke-opacity:0.06; fill:none" points="1345.13,1486.45 1345.13,47.2441 "/>
<polyline clip-path="url(#clip862)" style="stroke:#000000; stroke-linecap:round; stroke-linejoin:round; stroke-width:2; stroke-opacity:0.06; fill:none" points="1422.37,1486.45 1422.37,47.2441 "/>
<polyline clip-path="url(#clip862)" style="stroke:#000000; stroke-linecap:round; stroke-linejoin:round; stroke-width:2; stroke-opacity:0.06; fill:none" points="1499.62,1486.45 1499.62,47.2441 "/>
<polyline clip-path="url(#clip862)" style="stroke:#000000; stroke-linecap:round; stroke-linejoin:round; stroke-width:2; stroke-opacity:0.06; fill:none" points="1654.11,1486.45 1654.11,47.2441 "/>
<polyline clip-path="url(#clip862)" style="stroke:#000000; stroke-linecap:round; stroke-linejoin:round; stroke-width:2; stroke-opacity:0.06; fill:none" points="1731.35,1486.45 1731.35,47.2441 "/>
<polyline clip-path="url(#clip862)" style="stroke:#000000; stroke-linecap:round; stroke-linejoin:round; stroke-width:2; stroke-opacity:0.06; fill:none" points="1808.6,1486.45 1808.6,47.2441 "/>
<polyline clip-path="url(#clip862)" style="stroke:#000000; stroke-linecap:round; stroke-linejoin:round; stroke-width:2; stroke-opacity:0.06; fill:none" points="1885.84,1486.45 1885.84,47.2441 "/>
<polyline clip-path="url(#clip862)" style="stroke:#000000; stroke-linecap:round; stroke-linejoin:round; stroke-width:2; stroke-opacity:0.06; fill:none" points="172.935,1459.66 2015.23,1459.66 "/>
<polyline clip-path="url(#clip862)" style="stroke:#000000; stroke-linecap:round; stroke-linejoin:round; stroke-width:2; stroke-opacity:0.06; fill:none" points="172.935,1419.9 2015.23,1419.9 "/>
<polyline clip-path="url(#clip862)" style="stroke:#000000; stroke-linecap:round; stroke-linejoin:round; stroke-width:2; stroke-opacity:0.06; fill:none" points="172.935,1340.38 2015.23,1340.38 "/>
<polyline clip-path="url(#clip862)" style="stroke:#000000; stroke-linecap:round; stroke-linejoin:round; stroke-width:2; stroke-opacity:0.06; fill:none" points="172.935,1300.62 2015.23,1300.62 "/>
<polyline clip-path="url(#clip862)" style="stroke:#000000; stroke-linecap:round; stroke-linejoin:round; stroke-width:2; stroke-opacity:0.06; fill:none" points="172.935,1260.86 2015.23,1260.86 "/>
<polyline clip-path="url(#clip862)" style="stroke:#000000; stroke-linecap:round; stroke-linejoin:round; stroke-width:2; stroke-opacity:0.06; fill:none" points="172.935,1221.1 2015.23,1221.1 "/>
<polyline clip-path="url(#clip862)" style="stroke:#000000; stroke-linecap:round; stroke-linejoin:round; stroke-width:2; stroke-opacity:0.06; fill:none" points="172.935,1141.58 2015.23,1141.58 "/>
<polyline clip-path="url(#clip862)" style="stroke:#000000; stroke-linecap:round; stroke-linejoin:round; stroke-width:2; stroke-opacity:0.06; fill:none" points="172.935,1101.82 2015.23,1101.82 "/>
<polyline clip-path="url(#clip862)" style="stroke:#000000; stroke-linecap:round; stroke-linejoin:round; stroke-width:2; stroke-opacity:0.06; fill:none" points="172.935,1062.06 2015.23,1062.06 "/>
<polyline clip-path="url(#clip862)" style="stroke:#000000; stroke-linecap:round; stroke-linejoin:round; stroke-width:2; stroke-opacity:0.06; fill:none" points="172.935,1022.3 2015.23,1022.3 "/>
<polyline clip-path="url(#clip862)" style="stroke:#000000; stroke-linecap:round; stroke-linejoin:round; stroke-width:2; stroke-opacity:0.06; fill:none" points="172.935,942.78 2015.23,942.78 "/>
<polyline clip-path="url(#clip862)" style="stroke:#000000; stroke-linecap:round; stroke-linejoin:round; stroke-width:2; stroke-opacity:0.06; fill:none" points="172.935,903.02 2015.23,903.02 "/>
<polyline clip-path="url(#clip862)" style="stroke:#000000; stroke-linecap:round; stroke-linejoin:round; stroke-width:2; stroke-opacity:0.06; fill:none" points="172.935,863.26 2015.23,863.26 "/>
<polyline clip-path="url(#clip862)" style="stroke:#000000; stroke-linecap:round; stroke-linejoin:round; stroke-width:2; stroke-opacity:0.06; fill:none" points="172.935,823.5 2015.23,823.5 "/>
<polyline clip-path="url(#clip862)" style="stroke:#000000; stroke-linecap:round; stroke-linejoin:round; stroke-width:2; stroke-opacity:0.06; fill:none" points="172.935,743.98 2015.23,743.98 "/>
<polyline clip-path="url(#clip862)" style="stroke:#000000; stroke-linecap:round; stroke-linejoin:round; stroke-width:2; stroke-opacity:0.06; fill:none" points="172.935,704.22 2015.23,704.22 "/>
<polyline clip-path="url(#clip862)" style="stroke:#000000; stroke-linecap:round; stroke-linejoin:round; stroke-width:2; stroke-opacity:0.06; fill:none" points="172.935,664.46 2015.23,664.46 "/>
<polyline clip-path="url(#clip862)" style="stroke:#000000; stroke-linecap:round; stroke-linejoin:round; stroke-width:2; stroke-opacity:0.06; fill:none" points="172.935,624.7 2015.23,624.7 "/>
<polyline clip-path="url(#clip862)" style="stroke:#000000; stroke-linecap:round; stroke-linejoin:round; stroke-width:2; stroke-opacity:0.06; fill:none" points="172.935,545.18 2015.23,545.18 "/>
<polyline clip-path="url(#clip862)" style="stroke:#000000; stroke-linecap:round; stroke-linejoin:round; stroke-width:2; stroke-opacity:0.06; fill:none" points="172.935,505.42 2015.23,505.42 "/>
<polyline clip-path="url(#clip862)" style="stroke:#000000; stroke-linecap:round; stroke-linejoin:round; stroke-width:2; stroke-opacity:0.06; fill:none" points="172.935,465.66 2015.23,465.66 "/>
<polyline clip-path="url(#clip862)" style="stroke:#000000; stroke-linecap:round; stroke-linejoin:round; stroke-width:2; stroke-opacity:0.06; fill:none" points="172.935,425.9 2015.23,425.9 "/>
<polyline clip-path="url(#clip862)" style="stroke:#000000; stroke-linecap:round; stroke-linejoin:round; stroke-width:2; stroke-opacity:0.06; fill:none" points="172.935,346.379 2015.23,346.379 "/>
<polyline clip-path="url(#clip862)" style="stroke:#000000; stroke-linecap:round; stroke-linejoin:round; stroke-width:2; stroke-opacity:0.06; fill:none" points="172.935,306.619 2015.23,306.619 "/>
<polyline clip-path="url(#clip862)" style="stroke:#000000; stroke-linecap:round; stroke-linejoin:round; stroke-width:2; stroke-opacity:0.06; fill:none" points="172.935,266.859 2015.23,266.859 "/>
<polyline clip-path="url(#clip862)" style="stroke:#000000; stroke-linecap:round; stroke-linejoin:round; stroke-width:2; stroke-opacity:0.06; fill:none" points="172.935,227.099 2015.23,227.099 "/>
<polyline clip-path="url(#clip862)" style="stroke:#000000; stroke-linecap:round; stroke-linejoin:round; stroke-width:2; stroke-opacity:0.06; fill:none" points="172.935,147.579 2015.23,147.579 "/>
<polyline clip-path="url(#clip862)" style="stroke:#000000; stroke-linecap:round; stroke-linejoin:round; stroke-width:2; stroke-opacity:0.06; fill:none" points="172.935,107.819 2015.23,107.819 "/>
<polyline clip-path="url(#clip862)" style="stroke:#000000; stroke-linecap:round; stroke-linejoin:round; stroke-width:2; stroke-opacity:0.06; fill:none" points="172.935,68.0589 2015.23,68.0589 "/>
<polyline clip-path="url(#clip862)" style="stroke:#000000; stroke-linecap:round; stroke-linejoin:round; stroke-width:2; stroke-opacity:0.06; fill:none" points="172.935,1459.66 2015.23,1459.66 "/>
<polyline clip-path="url(#clip862)" style="stroke:#000000; stroke-linecap:round; stroke-linejoin:round; stroke-width:2; stroke-opacity:0.06; fill:none" points="172.935,1419.9 2015.23,1419.9 "/>
<polyline clip-path="url(#clip862)" style="stroke:#000000; stroke-linecap:round; stroke-linejoin:round; stroke-width:2; stroke-opacity:0.06; fill:none" points="172.935,1340.38 2015.23,1340.38 "/>
<polyline clip-path="url(#clip862)" style="stroke:#000000; stroke-linecap:round; stroke-linejoin:round; stroke-width:2; stroke-opacity:0.06; fill:none" points="172.935,1300.62 2015.23,1300.62 "/>
<polyline clip-path="url(#clip862)" style="stroke:#000000; stroke-linecap:round; stroke-linejoin:round; stroke-width:2; stroke-opacity:0.06; fill:none" points="172.935,1260.86 2015.23,1260.86 "/>
<polyline clip-path="url(#clip862)" style="stroke:#000000; stroke-linecap:round; stroke-linejoin:round; stroke-width:2; stroke-opacity:0.06; fill:none" points="172.935,1221.1 2015.23,1221.1 "/>
<polyline clip-path="url(#clip862)" style="stroke:#000000; stroke-linecap:round; stroke-linejoin:round; stroke-width:2; stroke-opacity:0.06; fill:none" points="172.935,1141.58 2015.23,1141.58 "/>
<polyline clip-path="url(#clip862)" style="stroke:#000000; stroke-linecap:round; stroke-linejoin:round; stroke-width:2; stroke-opacity:0.06; fill:none" points="172.935,1101.82 2015.23,1101.82 "/>
<polyline clip-path="url(#clip862)" style="stroke:#000000; stroke-linecap:round; stroke-linejoin:round; stroke-width:2; stroke-opacity:0.06; fill:none" points="172.935,1062.06 2015.23,1062.06 "/>
<polyline clip-path="url(#clip862)" style="stroke:#000000; stroke-linecap:round; stroke-linejoin:round; stroke-width:2; stroke-opacity:0.06; fill:none" points="172.935,1022.3 2015.23,1022.3 "/>
<polyline clip-path="url(#clip862)" style="stroke:#000000; stroke-linecap:round; stroke-linejoin:round; stroke-width:2; stroke-opacity:0.06; fill:none" points="172.935,942.78 2015.23,942.78 "/>
<polyline clip-path="url(#clip862)" style="stroke:#000000; stroke-linecap:round; stroke-linejoin:round; stroke-width:2; stroke-opacity:0.06; fill:none" points="172.935,903.02 2015.23,903.02 "/>
<polyline clip-path="url(#clip862)" style="stroke:#000000; stroke-linecap:round; stroke-linejoin:round; stroke-width:2; stroke-opacity:0.06; fill:none" points="172.935,863.26 2015.23,863.26 "/>
<polyline clip-path="url(#clip862)" style="stroke:#000000; stroke-linecap:round; stroke-linejoin:round; stroke-width:2; stroke-opacity:0.06; fill:none" points="172.935,823.5 2015.23,823.5 "/>
<polyline clip-path="url(#clip862)" style="stroke:#000000; stroke-linecap:round; stroke-linejoin:round; stroke-width:2; stroke-opacity:0.06; fill:none" points="172.935,743.98 2015.23,743.98 "/>
<polyline clip-path="url(#clip862)" style="stroke:#000000; stroke-linecap:round; stroke-linejoin:round; stroke-width:2; stroke-opacity:0.06; fill:none" points="172.935,704.22 2015.23,704.22 "/>
<polyline clip-path="url(#clip862)" style="stroke:#000000; stroke-linecap:round; stroke-linejoin:round; stroke-width:2; stroke-opacity:0.06; fill:none" points="172.935,664.46 2015.23,664.46 "/>
<polyline clip-path="url(#clip862)" style="stroke:#000000; stroke-linecap:round; stroke-linejoin:round; stroke-width:2; stroke-opacity:0.06; fill:none" points="172.935,624.7 2015.23,624.7 "/>
<polyline clip-path="url(#clip862)" style="stroke:#000000; stroke-linecap:round; stroke-linejoin:round; stroke-width:2; stroke-opacity:0.06; fill:none" points="172.935,545.18 2015.23,545.18 "/>
<polyline clip-path="url(#clip862)" style="stroke:#000000; stroke-linecap:round; stroke-linejoin:round; stroke-width:2; stroke-opacity:0.06; fill:none" points="172.935,505.42 2015.23,505.42 "/>
<polyline clip-path="url(#clip862)" style="stroke:#000000; stroke-linecap:round; stroke-linejoin:round; stroke-width:2; stroke-opacity:0.06; fill:none" points="172.935,465.66 2015.23,465.66 "/>
<polyline clip-path="url(#clip862)" style="stroke:#000000; stroke-linecap:round; stroke-linejoin:round; stroke-width:2; stroke-opacity:0.06; fill:none" points="172.935,425.9 2015.23,425.9 "/>
<polyline clip-path="url(#clip862)" style="stroke:#000000; stroke-linecap:round; stroke-linejoin:round; stroke-width:2; stroke-opacity:0.06; fill:none" points="172.935,346.379 2015.23,346.379 "/>
<polyline clip-path="url(#clip862)" style="stroke:#000000; stroke-linecap:round; stroke-linejoin:round; stroke-width:2; stroke-opacity:0.06; fill:none" points="172.935,306.619 2015.23,306.619 "/>
<polyline clip-path="url(#clip862)" style="stroke:#000000; stroke-linecap:round; stroke-linejoin:round; stroke-width:2; stroke-opacity:0.06; fill:none" points="172.935,266.859 2015.23,266.859 "/>
<polyline clip-path="url(#clip862)" style="stroke:#000000; stroke-linecap:round; stroke-linejoin:round; stroke-width:2; stroke-opacity:0.06; fill:none" points="172.935,227.099 2015.23,227.099 "/>
<polyline clip-path="url(#clip862)" style="stroke:#000000; stroke-linecap:round; stroke-linejoin:round; stroke-width:2; stroke-opacity:0.06; fill:none" points="172.935,147.579 2015.23,147.579 "/>
<polyline clip-path="url(#clip862)" style="stroke:#000000; stroke-linecap:round; stroke-linejoin:round; stroke-width:2; stroke-opacity:0.06; fill:none" points="172.935,107.819 2015.23,107.819 "/>
<polyline clip-path="url(#clip862)" style="stroke:#000000; stroke-linecap:round; stroke-linejoin:round; stroke-width:2; stroke-opacity:0.06; fill:none" points="172.935,68.0589 2015.23,68.0589 "/>
<polyline clip-path="url(#clip862)" style="stroke:#000000; stroke-linecap:round; stroke-linejoin:round; stroke-width:2.8; stroke-opacity:0.4; fill:none" points="418.188,1486.45 418.188,47.2441 "/>
<polyline clip-path="url(#clip862)" style="stroke:#000000; stroke-linecap:round; stroke-linejoin:round; stroke-width:2.8; stroke-opacity:0.4; fill:none" points="804.412,1486.45 804.412,47.2441 "/>
<polyline clip-path="url(#clip862)" style="stroke:#000000; stroke-linecap:round; stroke-linejoin:round; stroke-width:2.8; stroke-opacity:0.4; fill:none" points="1190.64,1486.45 1190.64,47.2441 "/>
<polyline clip-path="url(#clip862)" style="stroke:#000000; stroke-linecap:round; stroke-linejoin:round; stroke-width:2.8; stroke-opacity:0.4; fill:none" points="1576.86,1486.45 1576.86,47.2441 "/>
<polyline clip-path="url(#clip862)" style="stroke:#000000; stroke-linecap:round; stroke-linejoin:round; stroke-width:2.8; stroke-opacity:0.4; fill:none" points="1963.09,1486.45 1963.09,47.2441 "/>
<polyline clip-path="url(#clip862)" style="stroke:#000000; stroke-linecap:round; stroke-linejoin:round; stroke-width:2.8; stroke-opacity:0.4; fill:none" points="418.188,1486.45 418.188,47.2441 "/>
<polyline clip-path="url(#clip862)" style="stroke:#000000; stroke-linecap:round; stroke-linejoin:round; stroke-width:2.8; stroke-opacity:0.4; fill:none" points="804.412,1486.45 804.412,47.2441 "/>
<polyline clip-path="url(#clip862)" style="stroke:#000000; stroke-linecap:round; stroke-linejoin:round; stroke-width:2.8; stroke-opacity:0.4; fill:none" points="1190.64,1486.45 1190.64,47.2441 "/>
<polyline clip-path="url(#clip862)" style="stroke:#000000; stroke-linecap:round; stroke-linejoin:round; stroke-width:2.8; stroke-opacity:0.4; fill:none" points="1576.86,1486.45 1576.86,47.2441 "/>
<polyline clip-path="url(#clip862)" style="stroke:#000000; stroke-linecap:round; stroke-linejoin:round; stroke-width:2.8; stroke-opacity:0.4; fill:none" points="1963.09,1486.45 1963.09,47.2441 "/>
<polyline clip-path="url(#clip862)" style="stroke:#000000; stroke-linecap:round; stroke-linejoin:round; stroke-width:2.8; stroke-opacity:0.4; fill:none" points="172.935,1380.14 2015.23,1380.14 "/>
<polyline clip-path="url(#clip862)" style="stroke:#000000; stroke-linecap:round; stroke-linejoin:round; stroke-width:2.8; stroke-opacity:0.4; fill:none" points="172.935,1181.34 2015.23,1181.34 "/>
<polyline clip-path="url(#clip862)" style="stroke:#000000; stroke-linecap:round; stroke-linejoin:round; stroke-width:2.8; stroke-opacity:0.4; fill:none" points="172.935,982.54 2015.23,982.54 "/>
<polyline clip-path="url(#clip862)" style="stroke:#000000; stroke-linecap:round; stroke-linejoin:round; stroke-width:2.8; stroke-opacity:0.4; fill:none" points="172.935,783.74 2015.23,783.74 "/>
<polyline clip-path="url(#clip862)" style="stroke:#000000; stroke-linecap:round; stroke-linejoin:round; stroke-width:2.8; stroke-opacity:0.4; fill:none" points="172.935,584.94 2015.23,584.94 "/>
<polyline clip-path="url(#clip862)" style="stroke:#000000; stroke-linecap:round; stroke-linejoin:round; stroke-width:2.8; stroke-opacity:0.4; fill:none" points="172.935,386.139 2015.23,386.139 "/>
<polyline clip-path="url(#clip862)" style="stroke:#000000; stroke-linecap:round; stroke-linejoin:round; stroke-width:2.8; stroke-opacity:0.4; fill:none" points="172.935,187.339 2015.23,187.339 "/>
<polyline clip-path="url(#clip862)" style="stroke:#000000; stroke-linecap:round; stroke-linejoin:round; stroke-width:2.8; stroke-opacity:0.4; fill:none" points="172.935,1380.14 2015.23,1380.14 "/>
<polyline clip-path="url(#clip862)" style="stroke:#000000; stroke-linecap:round; stroke-linejoin:round; stroke-width:2.8; stroke-opacity:0.4; fill:none" points="172.935,1181.34 2015.23,1181.34 "/>
<polyline clip-path="url(#clip862)" style="stroke:#000000; stroke-linecap:round; stroke-linejoin:round; stroke-width:2.8; stroke-opacity:0.4; fill:none" points="172.935,982.54 2015.23,982.54 "/>
<polyline clip-path="url(#clip862)" style="stroke:#000000; stroke-linecap:round; stroke-linejoin:round; stroke-width:2.8; stroke-opacity:0.4; fill:none" points="172.935,783.74 2015.23,783.74 "/>
<polyline clip-path="url(#clip862)" style="stroke:#000000; stroke-linecap:round; stroke-linejoin:round; stroke-width:2.8; stroke-opacity:0.4; fill:none" points="172.935,584.94 2015.23,584.94 "/>
<polyline clip-path="url(#clip862)" style="stroke:#000000; stroke-linecap:round; stroke-linejoin:round; stroke-width:2.8; stroke-opacity:0.4; fill:none" points="172.935,386.139 2015.23,386.139 "/>
<polyline clip-path="url(#clip862)" style="stroke:#000000; stroke-linecap:round; stroke-linejoin:round; stroke-width:2.8; stroke-opacity:0.4; fill:none" points="172.935,187.339 2015.23,187.339 "/>
<polyline clip-path="url(#clip860)" style="stroke:#000000; stroke-linecap:round; stroke-linejoin:round; stroke-width:4; stroke-opacity:1; fill:none" points="172.935,1486.45 2015.23,1486.45 "/>
<polyline clip-path="url(#clip860)" style="stroke:#000000; stroke-linecap:round; stroke-linejoin:round; stroke-width:4; stroke-opacity:1; fill:none" points="172.935,47.2441 2015.23,47.2441 "/>
<polyline clip-path="url(#clip860)" style="stroke:#000000; stroke-linecap:round; stroke-linejoin:round; stroke-width:4; stroke-opacity:1; fill:none" points="418.188,1486.45 418.188,1467.55 "/>
<polyline clip-path="url(#clip860)" style="stroke:#000000; stroke-linecap:round; stroke-linejoin:round; stroke-width:4; stroke-opacity:1; fill:none" points="804.412,1486.45 804.412,1467.55 "/>
<polyline clip-path="url(#clip860)" style="stroke:#000000; stroke-linecap:round; stroke-linejoin:round; stroke-width:4; stroke-opacity:1; fill:none" points="1190.64,1486.45 1190.64,1467.55 "/>
<polyline clip-path="url(#clip860)" style="stroke:#000000; stroke-linecap:round; stroke-linejoin:round; stroke-width:4; stroke-opacity:1; fill:none" points="1576.86,1486.45 1576.86,1467.55 "/>
<polyline clip-path="url(#clip860)" style="stroke:#000000; stroke-linecap:round; stroke-linejoin:round; stroke-width:4; stroke-opacity:1; fill:none" points="1963.09,1486.45 1963.09,1467.55 "/>
<polyline clip-path="url(#clip860)" style="stroke:#000000; stroke-linecap:round; stroke-linejoin:round; stroke-width:4; stroke-opacity:1; fill:none" points="418.188,47.2441 418.188,66.1417 "/>
<polyline clip-path="url(#clip860)" style="stroke:#000000; stroke-linecap:round; stroke-linejoin:round; stroke-width:4; stroke-opacity:1; fill:none" points="804.412,47.2441 804.412,66.1417 "/>
<polyline clip-path="url(#clip860)" style="stroke:#000000; stroke-linecap:round; stroke-linejoin:round; stroke-width:4; stroke-opacity:1; fill:none" points="1190.64,47.2441 1190.64,66.1417 "/>
<polyline clip-path="url(#clip860)" style="stroke:#000000; stroke-linecap:round; stroke-linejoin:round; stroke-width:4; stroke-opacity:1; fill:none" points="1576.86,47.2441 1576.86,66.1417 "/>
<polyline clip-path="url(#clip860)" style="stroke:#000000; stroke-linecap:round; stroke-linejoin:round; stroke-width:4; stroke-opacity:1; fill:none" points="1963.09,47.2441 1963.09,66.1417 "/>
<polyline clip-path="url(#clip860)" style="stroke:#000000; stroke-linecap:round; stroke-linejoin:round; stroke-width:4; stroke-opacity:1; fill:none" points="186.453,1486.45 186.453,1477 "/>
<polyline clip-path="url(#clip860)" style="stroke:#000000; stroke-linecap:round; stroke-linejoin:round; stroke-width:4; stroke-opacity:1; fill:none" points="263.698,1486.45 263.698,1477 "/>
<polyline clip-path="url(#clip860)" style="stroke:#000000; stroke-linecap:round; stroke-linejoin:round; stroke-width:4; stroke-opacity:1; fill:none" points="340.943,1486.45 340.943,1477 "/>
<polyline clip-path="url(#clip860)" style="stroke:#000000; stroke-linecap:round; stroke-linejoin:round; stroke-width:4; stroke-opacity:1; fill:none" points="495.433,1486.45 495.433,1477 "/>
<polyline clip-path="url(#clip860)" style="stroke:#000000; stroke-linecap:round; stroke-linejoin:round; stroke-width:4; stroke-opacity:1; fill:none" points="572.678,1486.45 572.678,1477 "/>
<polyline clip-path="url(#clip860)" style="stroke:#000000; stroke-linecap:round; stroke-linejoin:round; stroke-width:4; stroke-opacity:1; fill:none" points="649.922,1486.45 649.922,1477 "/>
<polyline clip-path="url(#clip860)" style="stroke:#000000; stroke-linecap:round; stroke-linejoin:round; stroke-width:4; stroke-opacity:1; fill:none" points="727.167,1486.45 727.167,1477 "/>
<polyline clip-path="url(#clip860)" style="stroke:#000000; stroke-linecap:round; stroke-linejoin:round; stroke-width:4; stroke-opacity:1; fill:none" points="881.657,1486.45 881.657,1477 "/>
<polyline clip-path="url(#clip860)" style="stroke:#000000; stroke-linecap:round; stroke-linejoin:round; stroke-width:4; stroke-opacity:1; fill:none" points="958.902,1486.45 958.902,1477 "/>
<polyline clip-path="url(#clip860)" style="stroke:#000000; stroke-linecap:round; stroke-linejoin:round; stroke-width:4; stroke-opacity:1; fill:none" points="1036.15,1486.45 1036.15,1477 "/>
<polyline clip-path="url(#clip860)" style="stroke:#000000; stroke-linecap:round; stroke-linejoin:round; stroke-width:4; stroke-opacity:1; fill:none" points="1113.39,1486.45 1113.39,1477 "/>
<polyline clip-path="url(#clip860)" style="stroke:#000000; stroke-linecap:round; stroke-linejoin:round; stroke-width:4; stroke-opacity:1; fill:none" points="1267.88,1486.45 1267.88,1477 "/>
<polyline clip-path="url(#clip860)" style="stroke:#000000; stroke-linecap:round; stroke-linejoin:round; stroke-width:4; stroke-opacity:1; fill:none" points="1345.13,1486.45 1345.13,1477 "/>
<polyline clip-path="url(#clip860)" style="stroke:#000000; stroke-linecap:round; stroke-linejoin:round; stroke-width:4; stroke-opacity:1; fill:none" points="1422.37,1486.45 1422.37,1477 "/>
<polyline clip-path="url(#clip860)" style="stroke:#000000; stroke-linecap:round; stroke-linejoin:round; stroke-width:4; stroke-opacity:1; fill:none" points="1499.62,1486.45 1499.62,1477 "/>
<polyline clip-path="url(#clip860)" style="stroke:#000000; stroke-linecap:round; stroke-linejoin:round; stroke-width:4; stroke-opacity:1; fill:none" points="1654.11,1486.45 1654.11,1477 "/>
<polyline clip-path="url(#clip860)" style="stroke:#000000; stroke-linecap:round; stroke-linejoin:round; stroke-width:4; stroke-opacity:1; fill:none" points="1731.35,1486.45 1731.35,1477 "/>
<polyline clip-path="url(#clip860)" style="stroke:#000000; stroke-linecap:round; stroke-linejoin:round; stroke-width:4; stroke-opacity:1; fill:none" points="1808.6,1486.45 1808.6,1477 "/>
<polyline clip-path="url(#clip860)" style="stroke:#000000; stroke-linecap:round; stroke-linejoin:round; stroke-width:4; stroke-opacity:1; fill:none" points="1885.84,1486.45 1885.84,1477 "/>
<polyline clip-path="url(#clip860)" style="stroke:#000000; stroke-linecap:round; stroke-linejoin:round; stroke-width:4; stroke-opacity:1; fill:none" points="186.453,47.2441 186.453,56.6929 "/>
<polyline clip-path="url(#clip860)" style="stroke:#000000; stroke-linecap:round; stroke-linejoin:round; stroke-width:4; stroke-opacity:1; fill:none" points="263.698,47.2441 263.698,56.6929 "/>
<polyline clip-path="url(#clip860)" style="stroke:#000000; stroke-linecap:round; stroke-linejoin:round; stroke-width:4; stroke-opacity:1; fill:none" points="340.943,47.2441 340.943,56.6929 "/>
<polyline clip-path="url(#clip860)" style="stroke:#000000; stroke-linecap:round; stroke-linejoin:round; stroke-width:4; stroke-opacity:1; fill:none" points="495.433,47.2441 495.433,56.6929 "/>
<polyline clip-path="url(#clip860)" style="stroke:#000000; stroke-linecap:round; stroke-linejoin:round; stroke-width:4; stroke-opacity:1; fill:none" points="572.678,47.2441 572.678,56.6929 "/>
<polyline clip-path="url(#clip860)" style="stroke:#000000; stroke-linecap:round; stroke-linejoin:round; stroke-width:4; stroke-opacity:1; fill:none" points="649.922,47.2441 649.922,56.6929 "/>
<polyline clip-path="url(#clip860)" style="stroke:#000000; stroke-linecap:round; stroke-linejoin:round; stroke-width:4; stroke-opacity:1; fill:none" points="727.167,47.2441 727.167,56.6929 "/>
<polyline clip-path="url(#clip860)" style="stroke:#000000; stroke-linecap:round; stroke-linejoin:round; stroke-width:4; stroke-opacity:1; fill:none" points="881.657,47.2441 881.657,56.6929 "/>
<polyline clip-path="url(#clip860)" style="stroke:#000000; stroke-linecap:round; stroke-linejoin:round; stroke-width:4; stroke-opacity:1; fill:none" points="958.902,47.2441 958.902,56.6929 "/>
<polyline clip-path="url(#clip860)" style="stroke:#000000; stroke-linecap:round; stroke-linejoin:round; stroke-width:4; stroke-opacity:1; fill:none" points="1036.15,47.2441 1036.15,56.6929 "/>
<polyline clip-path="url(#clip860)" style="stroke:#000000; stroke-linecap:round; stroke-linejoin:round; stroke-width:4; stroke-opacity:1; fill:none" points="1113.39,47.2441 1113.39,56.6929 "/>
<polyline clip-path="url(#clip860)" style="stroke:#000000; stroke-linecap:round; stroke-linejoin:round; stroke-width:4; stroke-opacity:1; fill:none" points="1267.88,47.2441 1267.88,56.6929 "/>
<polyline clip-path="url(#clip860)" style="stroke:#000000; stroke-linecap:round; stroke-linejoin:round; stroke-width:4; stroke-opacity:1; fill:none" points="1345.13,47.2441 1345.13,56.6929 "/>
<polyline clip-path="url(#clip860)" style="stroke:#000000; stroke-linecap:round; stroke-linejoin:round; stroke-width:4; stroke-opacity:1; fill:none" points="1422.37,47.2441 1422.37,56.6929 "/>
<polyline clip-path="url(#clip860)" style="stroke:#000000; stroke-linecap:round; stroke-linejoin:round; stroke-width:4; stroke-opacity:1; fill:none" points="1499.62,47.2441 1499.62,56.6929 "/>
<polyline clip-path="url(#clip860)" style="stroke:#000000; stroke-linecap:round; stroke-linejoin:round; stroke-width:4; stroke-opacity:1; fill:none" points="1654.11,47.2441 1654.11,56.6929 "/>
<polyline clip-path="url(#clip860)" style="stroke:#000000; stroke-linecap:round; stroke-linejoin:round; stroke-width:4; stroke-opacity:1; fill:none" points="1731.35,47.2441 1731.35,56.6929 "/>
<polyline clip-path="url(#clip860)" style="stroke:#000000; stroke-linecap:round; stroke-linejoin:round; stroke-width:4; stroke-opacity:1; fill:none" points="1808.6,47.2441 1808.6,56.6929 "/>
<polyline clip-path="url(#clip860)" style="stroke:#000000; stroke-linecap:round; stroke-linejoin:round; stroke-width:4; stroke-opacity:1; fill:none" points="1885.84,47.2441 1885.84,56.6929 "/>
<path clip-path="url(#clip860)" d="M395.164 1548.85 Q395.164 1547.93 395.238 1547.66 Q395.337 1547.39 395.732 1546.97 L405.441 1536.15 Q410.752 1530.17 410.752 1524.96 Q410.752 1521.58 408.973 1519.15 Q407.219 1516.73 403.983 1516.73 Q401.76 1516.73 399.883 1518.09 Q398.005 1519.45 397.14 1521.87 Q397.289 1521.82 397.807 1521.82 Q399.067 1521.82 399.759 1522.61 Q400.475 1523.4 400.475 1524.47 Q400.475 1525.82 399.586 1526.49 Q398.721 1527.13 397.857 1527.13 Q397.511 1527.13 397.042 1527.06 Q396.597 1526.99 395.881 1526.29 Q395.164 1525.58 395.164 1524.32 Q395.164 1520.78 397.832 1517.97 Q400.525 1515.15 404.626 1515.15 Q409.27 1515.15 412.308 1517.92 Q415.372 1520.66 415.372 1524.96 Q415.372 1526.47 414.902 1527.85 Q414.457 1529.21 413.84 1530.27 Q413.247 1531.33 411.617 1533.04 Q409.986 1534.74 408.677 1535.95 Q407.368 1537.16 404.428 1539.73 L399.067 1544.94 L408.183 1544.94 Q412.629 1544.94 412.975 1544.55 Q413.469 1543.83 414.087 1540.05 L415.372 1540.05 L413.939 1548.85 L395.164 1548.85 Z" fill="#000000" fill-rule="nonzero" fill-opacity="1" /><path clip-path="url(#clip860)" d="M419.917 1532.67 Q419.917 1525.23 421.794 1521.18 Q424.413 1515.15 430.589 1515.15 Q431.898 1515.15 433.257 1515.52 Q434.64 1515.87 436.369 1517.23 Q438.123 1518.59 439.186 1520.81 Q441.211 1525.11 441.211 1532.67 Q441.211 1540.05 439.334 1544.08 Q436.592 1549.96 430.539 1549.96 Q428.267 1549.96 425.945 1548.8 Q423.647 1547.64 422.19 1544.85 Q419.917 1540.67 419.917 1532.67 M424.117 1532.05 Q424.117 1539.68 424.66 1542.72 Q425.278 1546.01 426.957 1547.44 Q428.662 1548.85 430.539 1548.85 Q432.565 1548.85 434.245 1547.34 Q435.949 1545.81 436.468 1542.52 Q437.036 1539.29 437.012 1532.05 Q437.012 1525.01 436.518 1522.19 Q435.851 1518.91 434.072 1517.6 Q432.318 1516.26 430.539 1516.26 Q429.872 1516.26 429.156 1516.46 Q428.464 1516.66 427.451 1517.23 Q426.439 1517.8 425.648 1519.2 Q424.882 1520.61 424.512 1522.74 Q424.117 1525.48 424.117 1532.05 Z" fill="#000000" fill-rule="nonzero" fill-opacity="1" /><path clip-path="url(#clip860)" d="M780.833 1540.5 L780.833 1538.94 L796.371 1515.2 Q796.767 1514.58 797.384 1514.61 Q797.952 1514.61 798.076 1514.83 Q798.199 1515.05 798.199 1515.92 L798.199 1538.94 L803.264 1538.94 L803.264 1540.5 L798.199 1540.5 L798.199 1544.9 Q798.199 1546.35 798.792 1546.82 Q799.41 1547.29 802.028 1547.29 L803.091 1547.29 L803.091 1548.85 Q801.016 1548.7 796.223 1548.7 Q791.455 1548.7 789.38 1548.85 L789.38 1547.29 L790.442 1547.29 Q793.061 1547.29 793.679 1546.85 Q794.296 1546.38 794.296 1544.9 L794.296 1540.5 L780.833 1540.5 M782.266 1538.94 L794.593 1538.94 L794.593 1520.07 L782.266 1538.94 Z" fill="#000000" fill-rule="nonzero" fill-opacity="1" /><path clip-path="url(#clip860)" d="M806.697 1532.67 Q806.697 1525.23 808.575 1521.18 Q811.193 1515.15 817.369 1515.15 Q818.678 1515.15 820.037 1515.52 Q821.42 1515.87 823.15 1517.23 Q824.904 1518.59 825.966 1520.81 Q827.992 1525.11 827.992 1532.67 Q827.992 1540.05 826.114 1544.08 Q823.372 1549.96 817.32 1549.96 Q815.047 1549.96 812.725 1548.8 Q810.428 1547.64 808.97 1544.85 Q806.697 1540.67 806.697 1532.67 M810.897 1532.05 Q810.897 1539.68 811.44 1542.72 Q812.058 1546.01 813.738 1547.44 Q815.442 1548.85 817.32 1548.85 Q819.345 1548.85 821.025 1547.34 Q822.73 1545.81 823.249 1542.52 Q823.817 1539.29 823.792 1532.05 Q823.792 1525.01 823.298 1522.19 Q822.631 1518.91 820.852 1517.6 Q819.098 1516.26 817.32 1516.26 Q816.653 1516.26 815.936 1516.46 Q815.245 1516.66 814.232 1517.23 Q813.219 1517.8 812.428 1519.2 Q811.663 1520.61 811.292 1522.74 Q810.897 1525.48 810.897 1532.05 Z" fill="#000000" fill-rule="nonzero" fill-opacity="1" /><path clip-path="url(#clip860)" d="M1167.42 1532.86 Q1167.42 1524.91 1171.47 1520.04 Q1175.52 1515.15 1180.73 1515.15 Q1183.77 1515.15 1185.45 1516.71 Q1187.15 1518.24 1187.15 1520.61 Q1187.15 1521.92 1186.39 1522.49 Q1185.62 1523.06 1184.83 1523.06 Q1183.92 1523.06 1183.2 1522.44 Q1182.48 1521.82 1182.48 1520.71 Q1182.48 1518.44 1185.28 1518.44 Q1183.97 1516.41 1180.83 1516.41 Q1179.87 1516.41 1178.88 1516.71 Q1177.89 1516.98 1176.61 1517.92 Q1175.32 1518.86 1174.33 1520.34 Q1173.34 1521.82 1172.65 1524.61 Q1171.96 1527.41 1171.96 1531.04 L1171.96 1532.25 Q1174.04 1527.23 1178.29 1527.26 Q1182.53 1527.26 1185.47 1530.49 Q1188.41 1533.73 1188.41 1538.52 Q1188.41 1543.44 1185.35 1546.7 Q1182.29 1549.96 1177.99 1549.96 Q1176.06 1549.96 1174.31 1549.14 Q1172.58 1548.35 1170.95 1546.53 Q1169.34 1544.7 1168.38 1541.19 Q1167.42 1537.68 1167.42 1532.86 M1172.06 1537.41 Q1172.06 1542.38 1172.97 1544.75 Q1173.12 1545.14 1173.44 1545.69 Q1173.79 1546.23 1174.36 1546.95 Q1174.95 1547.64 1175.91 1548.11 Q1176.88 1548.55 1177.99 1548.55 Q1181.37 1548.55 1183 1545.27 Q1183.87 1543.44 1183.87 1538.47 Q1183.87 1533.41 1182.95 1531.56 Q1181.4 1528.42 1178.24 1528.42 Q1176.11 1528.42 1174.63 1529.88 Q1173.17 1531.33 1172.6 1533.28 Q1172.06 1535.24 1172.06 1537.41 Z" fill="#000000" fill-rule="nonzero" fill-opacity="1" /><path clip-path="url(#clip860)" d="M1192.56 1532.67 Q1192.56 1525.23 1194.44 1521.18 Q1197.06 1515.15 1203.24 1515.15 Q1204.54 1515.15 1205.9 1515.52 Q1207.29 1515.87 1209.02 1517.23 Q1210.77 1518.59 1211.83 1520.81 Q1213.86 1525.11 1213.86 1532.67 Q1213.86 1540.05 1211.98 1544.08 Q1209.24 1549.96 1203.19 1549.96 Q1200.91 1549.96 1198.59 1548.8 Q1196.29 1547.64 1194.84 1544.85 Q1192.56 1540.67 1192.56 1532.67 M1196.76 1532.05 Q1196.76 1539.68 1197.31 1542.72 Q1197.92 1546.01 1199.6 1547.44 Q1201.31 1548.85 1203.19 1548.85 Q1205.21 1548.85 1206.89 1547.34 Q1208.6 1545.81 1209.11 1542.52 Q1209.68 1539.29 1209.66 1532.05 Q1209.66 1525.01 1209.16 1522.19 Q1208.5 1518.91 1206.72 1517.6 Q1204.96 1516.26 1203.19 1516.26 Q1202.52 1516.26 1201.8 1516.46 Q1201.11 1516.66 1200.1 1517.23 Q1199.09 1517.8 1198.29 1519.2 Q1197.53 1520.61 1197.16 1522.74 Q1196.76 1525.48 1196.76 1532.05 Z" fill="#000000" fill-rule="nonzero" fill-opacity="1" /><path clip-path="url(#clip860)" d="M1553.64 1541.21 Q1553.64 1535.56 1560.93 1531.9 Q1557.79 1529.78 1557.22 1529.16 Q1555 1526.69 1555 1523.6 Q1555 1520.07 1557.67 1517.62 Q1560.36 1515.15 1564.16 1515.15 Q1567.8 1515.15 1570.54 1517.25 Q1573.28 1519.35 1573.28 1522.69 Q1573.28 1527.38 1567.15 1530.54 Q1571.2 1533.06 1572.17 1534.12 Q1574.64 1536.87 1574.64 1540.35 Q1574.64 1544.4 1571.53 1547.19 Q1568.41 1549.96 1564.11 1549.96 Q1559.91 1549.96 1556.78 1547.51 Q1553.64 1545.07 1553.64 1541.21 M1556.16 1541.21 Q1556.16 1544.35 1558.51 1546.45 Q1560.88 1548.55 1564.16 1548.55 Q1567.35 1548.55 1569.72 1546.72 Q1572.12 1544.9 1572.12 1542.18 Q1572.12 1541.12 1571.75 1540.2 Q1571.4 1539.29 1570.69 1538.57 Q1569.99 1537.83 1569.55 1537.51 Q1569.13 1537.16 1568.31 1536.6 L1562.09 1532.67 Q1556.16 1535.95 1556.16 1541.21 M1557.22 1521.62 Q1557.22 1524.05 1559.77 1525.73 L1566.04 1529.78 Q1571.06 1526.84 1571.06 1522.69 Q1571.06 1519.99 1569.01 1518.22 Q1566.96 1516.41 1564.11 1516.41 Q1561.32 1516.41 1559.27 1517.89 Q1557.22 1519.35 1557.22 1521.62 Z" fill="#000000" fill-rule="nonzero" fill-opacity="1" /><path clip-path="url(#clip860)" d="M1578.79 1532.67 Q1578.79 1525.23 1580.67 1521.18 Q1583.28 1515.15 1589.46 1515.15 Q1590.77 1515.15 1592.13 1515.52 Q1593.51 1515.87 1595.24 1517.23 Q1596.99 1518.59 1598.06 1520.81 Q1600.08 1525.11 1600.08 1532.67 Q1600.08 1540.05 1598.21 1544.08 Q1595.46 1549.96 1589.41 1549.96 Q1587.14 1549.96 1584.82 1548.8 Q1582.52 1547.64 1581.06 1544.85 Q1578.79 1540.67 1578.79 1532.67 M1582.99 1532.05 Q1582.99 1539.68 1583.53 1542.72 Q1584.15 1546.01 1585.83 1547.44 Q1587.53 1548.85 1589.41 1548.85 Q1591.44 1548.85 1593.12 1547.34 Q1594.82 1545.81 1595.34 1542.52 Q1595.91 1539.29 1595.88 1532.05 Q1595.88 1525.01 1595.39 1522.19 Q1594.72 1518.91 1592.94 1517.6 Q1591.19 1516.26 1589.41 1516.26 Q1588.74 1516.26 1588.03 1516.46 Q1587.34 1516.66 1586.32 1517.23 Q1585.31 1517.8 1584.52 1519.2 Q1583.75 1520.61 1583.38 1522.74 Q1582.99 1525.48 1582.99 1532.05 Z" fill="#000000" fill-rule="nonzero" fill-opacity="1" /><path clip-path="url(#clip860)" d="M1928.4 1519.97 L1928.4 1518.39 Q1934.48 1518.39 1937.62 1515.15 Q1938.48 1515.15 1938.63 1515.35 Q1938.78 1515.55 1938.78 1516.46 L1938.78 1544.85 Q1938.78 1546.35 1939.52 1546.82 Q1940.26 1547.29 1943.5 1547.29 L1945.1 1547.29 L1945.1 1548.85 Q1943.32 1548.7 1936.9 1548.7 Q1930.48 1548.7 1928.72 1548.85 L1928.72 1547.29 L1930.33 1547.29 Q1933.52 1547.29 1934.28 1546.85 Q1935.05 1546.38 1935.05 1544.85 L1935.05 1518.64 Q1932.4 1519.97 1928.4 1519.97 Z" fill="#000000" fill-rule="nonzero" fill-opacity="1" /><path clip-path="url(#clip860)" d="M1951.18 1532.67 Q1951.18 1525.23 1953.06 1521.18 Q1955.67 1515.15 1961.85 1515.15 Q1963.16 1515.15 1964.52 1515.52 Q1965.9 1515.87 1967.63 1517.23 Q1969.39 1518.59 1970.45 1520.81 Q1972.47 1525.11 1972.47 1532.67 Q1972.47 1540.05 1970.6 1544.08 Q1967.85 1549.96 1961.8 1549.96 Q1959.53 1549.96 1957.21 1548.8 Q1954.91 1547.64 1953.45 1544.85 Q1951.18 1540.67 1951.18 1532.67 M1955.38 1532.05 Q1955.38 1539.68 1955.92 1542.72 Q1956.54 1546.01 1958.22 1547.44 Q1959.92 1548.85 1961.8 1548.85 Q1963.83 1548.85 1965.51 1547.34 Q1967.21 1545.81 1967.73 1542.52 Q1968.3 1539.29 1968.27 1532.05 Q1968.27 1525.01 1967.78 1522.19 Q1967.11 1518.91 1965.33 1517.6 Q1963.58 1516.26 1961.8 1516.26 Q1961.13 1516.26 1960.42 1516.46 Q1959.73 1516.66 1958.71 1517.23 Q1957.7 1517.8 1956.91 1519.2 Q1956.14 1520.61 1955.77 1522.74 Q1955.38 1525.48 1955.38 1532.05 Z" fill="#000000" fill-rule="nonzero" fill-opacity="1" /><path clip-path="url(#clip860)" d="M1976.48 1532.67 Q1976.48 1525.23 1978.35 1521.18 Q1980.97 1515.15 1987.15 1515.15 Q1988.46 1515.15 1989.81 1515.52 Q1991.2 1515.87 1992.93 1517.23 Q1994.68 1518.59 1995.74 1520.81 Q1997.77 1525.11 1997.77 1532.67 Q1997.77 1540.05 1995.89 1544.08 Q1993.15 1549.96 1987.1 1549.96 Q1984.82 1549.96 1982.5 1548.8 Q1980.21 1547.64 1978.75 1544.85 Q1976.48 1540.67 1976.48 1532.67 M1980.67 1532.05 Q1980.67 1539.68 1981.22 1542.72 Q1981.84 1546.01 1983.52 1547.44 Q1985.22 1548.85 1987.1 1548.85 Q1989.12 1548.85 1990.8 1547.34 Q1992.51 1545.81 1993.03 1542.52 Q1993.59 1539.29 1993.57 1532.05 Q1993.57 1525.01 1993.08 1522.19 Q1992.41 1518.91 1990.63 1517.6 Q1988.88 1516.26 1987.1 1516.26 Q1986.43 1516.26 1985.71 1516.46 Q1985.02 1516.66 1984.01 1517.23 Q1983 1517.8 1982.21 1519.2 Q1981.44 1520.61 1981.07 1522.74 Q1980.67 1525.48 1980.67 1532.05 Z" fill="#000000" fill-rule="nonzero" fill-opacity="1" /><polyline clip-path="url(#clip860)" style="stroke:#000000; stroke-linecap:round; stroke-linejoin:round; stroke-width:4; stroke-opacity:1; fill:none" points="172.935,1486.45 172.935,47.2441 "/>
<polyline clip-path="url(#clip860)" style="stroke:#000000; stroke-linecap:round; stroke-linejoin:round; stroke-width:4; stroke-opacity:1; fill:none" points="2015.23,1486.45 2015.23,47.2441 "/>
<polyline clip-path="url(#clip860)" style="stroke:#000000; stroke-linecap:round; stroke-linejoin:round; stroke-width:4; stroke-opacity:1; fill:none" points="172.935,1380.14 188.907,1380.14 "/>
<polyline clip-path="url(#clip860)" style="stroke:#000000; stroke-linecap:round; stroke-linejoin:round; stroke-width:4; stroke-opacity:1; fill:none" points="172.935,1181.34 188.907,1181.34 "/>
<polyline clip-path="url(#clip860)" style="stroke:#000000; stroke-linecap:round; stroke-linejoin:round; stroke-width:4; stroke-opacity:1; fill:none" points="172.935,982.54 188.907,982.54 "/>
<polyline clip-path="url(#clip860)" style="stroke:#000000; stroke-linecap:round; stroke-linejoin:round; stroke-width:4; stroke-opacity:1; fill:none" points="172.935,783.74 188.907,783.74 "/>
<polyline clip-path="url(#clip860)" style="stroke:#000000; stroke-linecap:round; stroke-linejoin:round; stroke-width:4; stroke-opacity:1; fill:none" points="172.935,584.94 188.907,584.94 "/>
<polyline clip-path="url(#clip860)" style="stroke:#000000; stroke-linecap:round; stroke-linejoin:round; stroke-width:4; stroke-opacity:1; fill:none" points="172.935,386.139 188.907,386.139 "/>
<polyline clip-path="url(#clip860)" style="stroke:#000000; stroke-linecap:round; stroke-linejoin:round; stroke-width:4; stroke-opacity:1; fill:none" points="172.935,187.339 188.907,187.339 "/>
<polyline clip-path="url(#clip860)" style="stroke:#000000; stroke-linecap:round; stroke-linejoin:round; stroke-width:4; stroke-opacity:1; fill:none" points="2015.23,1380.14 1999.25,1380.14 "/>
<polyline clip-path="url(#clip860)" style="stroke:#000000; stroke-linecap:round; stroke-linejoin:round; stroke-width:4; stroke-opacity:1; fill:none" points="2015.23,1181.34 1999.25,1181.34 "/>
<polyline clip-path="url(#clip860)" style="stroke:#000000; stroke-linecap:round; stroke-linejoin:round; stroke-width:4; stroke-opacity:1; fill:none" points="2015.23,982.54 1999.25,982.54 "/>
<polyline clip-path="url(#clip860)" style="stroke:#000000; stroke-linecap:round; stroke-linejoin:round; stroke-width:4; stroke-opacity:1; fill:none" points="2015.23,783.74 1999.25,783.74 "/>
<polyline clip-path="url(#clip860)" style="stroke:#000000; stroke-linecap:round; stroke-linejoin:round; stroke-width:4; stroke-opacity:1; fill:none" points="2015.23,584.94 1999.25,584.94 "/>
<polyline clip-path="url(#clip860)" style="stroke:#000000; stroke-linecap:round; stroke-linejoin:round; stroke-width:4; stroke-opacity:1; fill:none" points="2015.23,386.139 1999.25,386.139 "/>
<polyline clip-path="url(#clip860)" style="stroke:#000000; stroke-linecap:round; stroke-linejoin:round; stroke-width:4; stroke-opacity:1; fill:none" points="2015.23,187.339 1999.25,187.339 "/>
<polyline clip-path="url(#clip860)" style="stroke:#000000; stroke-linecap:round; stroke-linejoin:round; stroke-width:4; stroke-opacity:1; fill:none" points="172.935,1459.66 180.921,1459.66 "/>
<polyline clip-path="url(#clip860)" style="stroke:#000000; stroke-linecap:round; stroke-linejoin:round; stroke-width:4; stroke-opacity:1; fill:none" points="172.935,1419.9 180.921,1419.9 "/>
<polyline clip-path="url(#clip860)" style="stroke:#000000; stroke-linecap:round; stroke-linejoin:round; stroke-width:4; stroke-opacity:1; fill:none" points="172.935,1340.38 180.921,1340.38 "/>
<polyline clip-path="url(#clip860)" style="stroke:#000000; stroke-linecap:round; stroke-linejoin:round; stroke-width:4; stroke-opacity:1; fill:none" points="172.935,1300.62 180.921,1300.62 "/>
<polyline clip-path="url(#clip860)" style="stroke:#000000; stroke-linecap:round; stroke-linejoin:round; stroke-width:4; stroke-opacity:1; fill:none" points="172.935,1260.86 180.921,1260.86 "/>
<polyline clip-path="url(#clip860)" style="stroke:#000000; stroke-linecap:round; stroke-linejoin:round; stroke-width:4; stroke-opacity:1; fill:none" points="172.935,1221.1 180.921,1221.1 "/>
<polyline clip-path="url(#clip860)" style="stroke:#000000; stroke-linecap:round; stroke-linejoin:round; stroke-width:4; stroke-opacity:1; fill:none" points="172.935,1141.58 180.921,1141.58 "/>
<polyline clip-path="url(#clip860)" style="stroke:#000000; stroke-linecap:round; stroke-linejoin:round; stroke-width:4; stroke-opacity:1; fill:none" points="172.935,1101.82 180.921,1101.82 "/>
<polyline clip-path="url(#clip860)" style="stroke:#000000; stroke-linecap:round; stroke-linejoin:round; stroke-width:4; stroke-opacity:1; fill:none" points="172.935,1062.06 180.921,1062.06 "/>
<polyline clip-path="url(#clip860)" style="stroke:#000000; stroke-linecap:round; stroke-linejoin:round; stroke-width:4; stroke-opacity:1; fill:none" points="172.935,1022.3 180.921,1022.3 "/>
<polyline clip-path="url(#clip860)" style="stroke:#000000; stroke-linecap:round; stroke-linejoin:round; stroke-width:4; stroke-opacity:1; fill:none" points="172.935,942.78 180.921,942.78 "/>
<polyline clip-path="url(#clip860)" style="stroke:#000000; stroke-linecap:round; stroke-linejoin:round; stroke-width:4; stroke-opacity:1; fill:none" points="172.935,903.02 180.921,903.02 "/>
<polyline clip-path="url(#clip860)" style="stroke:#000000; stroke-linecap:round; stroke-linejoin:round; stroke-width:4; stroke-opacity:1; fill:none" points="172.935,863.26 180.921,863.26 "/>
<polyline clip-path="url(#clip860)" style="stroke:#000000; stroke-linecap:round; stroke-linejoin:round; stroke-width:4; stroke-opacity:1; fill:none" points="172.935,823.5 180.921,823.5 "/>
<polyline clip-path="url(#clip860)" style="stroke:#000000; stroke-linecap:round; stroke-linejoin:round; stroke-width:4; stroke-opacity:1; fill:none" points="172.935,743.98 180.921,743.98 "/>
<polyline clip-path="url(#clip860)" style="stroke:#000000; stroke-linecap:round; stroke-linejoin:round; stroke-width:4; stroke-opacity:1; fill:none" points="172.935,704.22 180.921,704.22 "/>
<polyline clip-path="url(#clip860)" style="stroke:#000000; stroke-linecap:round; stroke-linejoin:round; stroke-width:4; stroke-opacity:1; fill:none" points="172.935,664.46 180.921,664.46 "/>
<polyline clip-path="url(#clip860)" style="stroke:#000000; stroke-linecap:round; stroke-linejoin:round; stroke-width:4; stroke-opacity:1; fill:none" points="172.935,624.7 180.921,624.7 "/>
<polyline clip-path="url(#clip860)" style="stroke:#000000; stroke-linecap:round; stroke-linejoin:round; stroke-width:4; stroke-opacity:1; fill:none" points="172.935,545.18 180.921,545.18 "/>
<polyline clip-path="url(#clip860)" style="stroke:#000000; stroke-linecap:round; stroke-linejoin:round; stroke-width:4; stroke-opacity:1; fill:none" points="172.935,505.42 180.921,505.42 "/>
<polyline clip-path="url(#clip860)" style="stroke:#000000; stroke-linecap:round; stroke-linejoin:round; stroke-width:4; stroke-opacity:1; fill:none" points="172.935,465.66 180.921,465.66 "/>
<polyline clip-path="url(#clip860)" style="stroke:#000000; stroke-linecap:round; stroke-linejoin:round; stroke-width:4; stroke-opacity:1; fill:none" points="172.935,425.9 180.921,425.9 "/>
<polyline clip-path="url(#clip860)" style="stroke:#000000; stroke-linecap:round; stroke-linejoin:round; stroke-width:4; stroke-opacity:1; fill:none" points="172.935,346.379 180.921,346.379 "/>
<polyline clip-path="url(#clip860)" style="stroke:#000000; stroke-linecap:round; stroke-linejoin:round; stroke-width:4; stroke-opacity:1; fill:none" points="172.935,306.619 180.921,306.619 "/>
<polyline clip-path="url(#clip860)" style="stroke:#000000; stroke-linecap:round; stroke-linejoin:round; stroke-width:4; stroke-opacity:1; fill:none" points="172.935,266.859 180.921,266.859 "/>
<polyline clip-path="url(#clip860)" style="stroke:#000000; stroke-linecap:round; stroke-linejoin:round; stroke-width:4; stroke-opacity:1; fill:none" points="172.935,227.099 180.921,227.099 "/>
<polyline clip-path="url(#clip860)" style="stroke:#000000; stroke-linecap:round; stroke-linejoin:round; stroke-width:4; stroke-opacity:1; fill:none" points="172.935,147.579 180.921,147.579 "/>
<polyline clip-path="url(#clip860)" style="stroke:#000000; stroke-linecap:round; stroke-linejoin:round; stroke-width:4; stroke-opacity:1; fill:none" points="172.935,107.819 180.921,107.819 "/>
<polyline clip-path="url(#clip860)" style="stroke:#000000; stroke-linecap:round; stroke-linejoin:round; stroke-width:4; stroke-opacity:1; fill:none" points="172.935,68.0589 180.921,68.0589 "/>
<polyline clip-path="url(#clip860)" style="stroke:#000000; stroke-linecap:round; stroke-linejoin:round; stroke-width:4; stroke-opacity:1; fill:none" points="2015.23,1459.66 2007.24,1459.66 "/>
<polyline clip-path="url(#clip860)" style="stroke:#000000; stroke-linecap:round; stroke-linejoin:round; stroke-width:4; stroke-opacity:1; fill:none" points="2015.23,1419.9 2007.24,1419.9 "/>
<polyline clip-path="url(#clip860)" style="stroke:#000000; stroke-linecap:round; stroke-linejoin:round; stroke-width:4; stroke-opacity:1; fill:none" points="2015.23,1340.38 2007.24,1340.38 "/>
<polyline clip-path="url(#clip860)" style="stroke:#000000; stroke-linecap:round; stroke-linejoin:round; stroke-width:4; stroke-opacity:1; fill:none" points="2015.23,1300.62 2007.24,1300.62 "/>
<polyline clip-path="url(#clip860)" style="stroke:#000000; stroke-linecap:round; stroke-linejoin:round; stroke-width:4; stroke-opacity:1; fill:none" points="2015.23,1260.86 2007.24,1260.86 "/>
<polyline clip-path="url(#clip860)" style="stroke:#000000; stroke-linecap:round; stroke-linejoin:round; stroke-width:4; stroke-opacity:1; fill:none" points="2015.23,1221.1 2007.24,1221.1 "/>
<polyline clip-path="url(#clip860)" style="stroke:#000000; stroke-linecap:round; stroke-linejoin:round; stroke-width:4; stroke-opacity:1; fill:none" points="2015.23,1141.58 2007.24,1141.58 "/>
<polyline clip-path="url(#clip860)" style="stroke:#000000; stroke-linecap:round; stroke-linejoin:round; stroke-width:4; stroke-opacity:1; fill:none" points="2015.23,1101.82 2007.24,1101.82 "/>
<polyline clip-path="url(#clip860)" style="stroke:#000000; stroke-linecap:round; stroke-linejoin:round; stroke-width:4; stroke-opacity:1; fill:none" points="2015.23,1062.06 2007.24,1062.06 "/>
<polyline clip-path="url(#clip860)" style="stroke:#000000; stroke-linecap:round; stroke-linejoin:round; stroke-width:4; stroke-opacity:1; fill:none" points="2015.23,1022.3 2007.24,1022.3 "/>
<polyline clip-path="url(#clip860)" style="stroke:#000000; stroke-linecap:round; stroke-linejoin:round; stroke-width:4; stroke-opacity:1; fill:none" points="2015.23,942.78 2007.24,942.78 "/>
<polyline clip-path="url(#clip860)" style="stroke:#000000; stroke-linecap:round; stroke-linejoin:round; stroke-width:4; stroke-opacity:1; fill:none" points="2015.23,903.02 2007.24,903.02 "/>
<polyline clip-path="url(#clip860)" style="stroke:#000000; stroke-linecap:round; stroke-linejoin:round; stroke-width:4; stroke-opacity:1; fill:none" points="2015.23,863.26 2007.24,863.26 "/>
<polyline clip-path="url(#clip860)" style="stroke:#000000; stroke-linecap:round; stroke-linejoin:round; stroke-width:4; stroke-opacity:1; fill:none" points="2015.23,823.5 2007.24,823.5 "/>
<polyline clip-path="url(#clip860)" style="stroke:#000000; stroke-linecap:round; stroke-linejoin:round; stroke-width:4; stroke-opacity:1; fill:none" points="2015.23,743.98 2007.24,743.98 "/>
<polyline clip-path="url(#clip860)" style="stroke:#000000; stroke-linecap:round; stroke-linejoin:round; stroke-width:4; stroke-opacity:1; fill:none" points="2015.23,704.22 2007.24,704.22 "/>
<polyline clip-path="url(#clip860)" style="stroke:#000000; stroke-linecap:round; stroke-linejoin:round; stroke-width:4; stroke-opacity:1; fill:none" points="2015.23,664.46 2007.24,664.46 "/>
<polyline clip-path="url(#clip860)" style="stroke:#000000; stroke-linecap:round; stroke-linejoin:round; stroke-width:4; stroke-opacity:1; fill:none" points="2015.23,624.7 2007.24,624.7 "/>
<polyline clip-path="url(#clip860)" style="stroke:#000000; stroke-linecap:round; stroke-linejoin:round; stroke-width:4; stroke-opacity:1; fill:none" points="2015.23,545.18 2007.24,545.18 "/>
<polyline clip-path="url(#clip860)" style="stroke:#000000; stroke-linecap:round; stroke-linejoin:round; stroke-width:4; stroke-opacity:1; fill:none" points="2015.23,505.42 2007.24,505.42 "/>
<polyline clip-path="url(#clip860)" style="stroke:#000000; stroke-linecap:round; stroke-linejoin:round; stroke-width:4; stroke-opacity:1; fill:none" points="2015.23,465.66 2007.24,465.66 "/>
<polyline clip-path="url(#clip860)" style="stroke:#000000; stroke-linecap:round; stroke-linejoin:round; stroke-width:4; stroke-opacity:1; fill:none" points="2015.23,425.9 2007.24,425.9 "/>
<polyline clip-path="url(#clip860)" style="stroke:#000000; stroke-linecap:round; stroke-linejoin:round; stroke-width:4; stroke-opacity:1; fill:none" points="2015.23,346.379 2007.24,346.379 "/>
<polyline clip-path="url(#clip860)" style="stroke:#000000; stroke-linecap:round; stroke-linejoin:round; stroke-width:4; stroke-opacity:1; fill:none" points="2015.23,306.619 2007.24,306.619 "/>
<polyline clip-path="url(#clip860)" style="stroke:#000000; stroke-linecap:round; stroke-linejoin:round; stroke-width:4; stroke-opacity:1; fill:none" points="2015.23,266.859 2007.24,266.859 "/>
<polyline clip-path="url(#clip860)" style="stroke:#000000; stroke-linecap:round; stroke-linejoin:round; stroke-width:4; stroke-opacity:1; fill:none" points="2015.23,227.099 2007.24,227.099 "/>
<polyline clip-path="url(#clip860)" style="stroke:#000000; stroke-linecap:round; stroke-linejoin:round; stroke-width:4; stroke-opacity:1; fill:none" points="2015.23,147.579 2007.24,147.579 "/>
<polyline clip-path="url(#clip860)" style="stroke:#000000; stroke-linecap:round; stroke-linejoin:round; stroke-width:4; stroke-opacity:1; fill:none" points="2015.23,107.819 2007.24,107.819 "/>
<polyline clip-path="url(#clip860)" style="stroke:#000000; stroke-linecap:round; stroke-linejoin:round; stroke-width:4; stroke-opacity:1; fill:none" points="2015.23,68.0589 2007.24,68.0589 "/>
<path clip-path="url(#clip860)" d="M51.5356 1381.24 Q51.5356 1373.8 53.4131 1369.75 Q56.0316 1363.73 62.2075 1363.73 Q63.5167 1363.73 64.8754 1364.1 Q66.2588 1364.44 67.988 1365.8 Q69.742 1367.16 70.8042 1369.38 Q72.8299 1373.68 72.8299 1381.24 Q72.8299 1388.63 70.9524 1392.65 Q68.2104 1398.53 62.158 1398.53 Q59.8853 1398.53 57.5632 1397.37 Q55.2658 1396.21 53.8083 1393.42 Q51.5356 1389.24 51.5356 1381.24 M55.7352 1380.62 Q55.7352 1388.26 56.2786 1391.29 Q56.8962 1394.58 58.5761 1396.01 Q60.2806 1397.42 62.158 1397.42 Q64.1837 1397.42 65.8635 1395.91 Q67.5681 1394.38 68.0869 1391.1 Q68.655 1387.86 68.6303 1380.62 Q68.6303 1373.58 68.1363 1370.77 Q67.4693 1367.48 65.6906 1366.17 Q63.9367 1364.84 62.158 1364.84 Q61.4911 1364.84 60.7747 1365.04 Q60.083 1365.23 59.0701 1365.8 Q58.0573 1366.37 57.2668 1367.78 Q56.501 1369.19 56.1304 1371.31 Q55.7352 1374.05 55.7352 1380.62 Z" fill="#000000" fill-rule="nonzero" fill-opacity="1" /><path clip-path="url(#clip860)" d="M79.9198 1396.61 Q79.154 1395.79 79.154 1394.73 Q79.154 1393.67 79.9198 1392.9 Q80.6856 1392.11 81.8466 1392.11 Q82.9583 1392.11 83.6994 1392.85 Q84.4652 1393.57 84.4652 1394.75 Q84.4652 1395.91 83.65 1396.68 Q82.8595 1397.42 81.8466 1397.42 Q80.6856 1397.42 79.9198 1396.61 Z" fill="#000000" fill-rule="nonzero" fill-opacity="1" /><path clip-path="url(#clip860)" d="M91.4315 1397.42 Q91.4315 1396.51 91.5056 1396.24 Q91.6044 1395.96 91.9997 1395.54 L101.708 1384.72 Q107.019 1378.75 107.019 1373.53 Q107.019 1370.15 105.241 1367.73 Q103.487 1365.31 100.251 1365.31 Q98.0273 1365.31 96.1499 1366.67 Q94.2724 1368.02 93.4078 1370.45 Q93.556 1370.4 94.0748 1370.4 Q95.3347 1370.4 96.0264 1371.19 Q96.7427 1371.98 96.7427 1373.04 Q96.7427 1374.4 95.8534 1375.06 Q94.9888 1375.71 94.1242 1375.71 Q93.7783 1375.71 93.309 1375.63 Q92.8643 1375.56 92.1479 1374.87 Q91.4315 1374.15 91.4315 1372.89 Q91.4315 1369.36 94.0995 1366.54 Q96.7922 1363.73 100.893 1363.73 Q105.537 1363.73 108.576 1366.49 Q111.639 1369.23 111.639 1373.53 Q111.639 1375.04 111.17 1376.42 Q110.725 1377.78 110.107 1378.84 Q109.514 1379.91 107.884 1381.61 Q106.254 1383.32 104.944 1384.53 Q103.635 1385.74 100.695 1388.31 L95.3347 1393.52 L104.45 1393.52 Q108.897 1393.52 109.243 1393.12 Q109.737 1392.41 110.354 1388.63 L111.639 1388.63 L110.206 1397.42 L91.4315 1397.42 Z" fill="#000000" fill-rule="nonzero" fill-opacity="1" /><path clip-path="url(#clip860)" d="M116.728 1389.27 Q116.728 1387.76 117.543 1387.19 Q118.358 1386.6 119.223 1386.6 Q120.384 1386.6 121.051 1387.34 Q121.743 1388.06 121.743 1389.07 Q121.743 1390.08 121.051 1390.83 Q120.384 1391.54 119.223 1391.54 Q118.655 1391.54 118.358 1391.44 Q119.025 1393.77 121.051 1395.44 Q123.101 1397.12 125.794 1397.12 Q129.178 1397.12 131.204 1393.84 Q132.414 1391.71 132.414 1386.9 Q132.414 1382.65 131.5 1380.52 Q130.092 1377.29 127.202 1377.29 Q123.101 1377.29 120.68 1380.82 Q120.384 1381.27 120.038 1381.29 Q119.544 1381.29 119.42 1381.02 Q119.322 1380.72 119.322 1379.96 L119.322 1364.99 Q119.322 1363.78 119.816 1363.78 Q120.013 1363.78 120.433 1363.92 Q123.62 1365.33 127.153 1365.36 Q130.784 1365.36 134.045 1363.87 Q134.292 1363.73 134.44 1363.73 Q134.934 1363.73 134.959 1364.29 Q134.959 1364.49 134.539 1365.08 Q134.144 1365.65 133.279 1366.42 Q132.414 1367.16 131.303 1367.88 Q130.191 1368.59 128.561 1369.09 Q126.955 1369.56 125.176 1369.56 Q123.052 1369.56 120.878 1368.89 L120.878 1378.75 Q123.496 1376.18 127.301 1376.18 Q131.352 1376.18 134.144 1379.44 Q136.935 1382.7 136.935 1387.24 Q136.935 1392.01 133.625 1395.27 Q130.339 1398.53 125.893 1398.53 Q121.841 1398.53 119.272 1395.64 Q116.728 1392.75 116.728 1389.27 Z" fill="#000000" fill-rule="nonzero" fill-opacity="1" /><path clip-path="url(#clip860)" d="M50.9921 1182.44 Q50.9921 1175 52.8696 1170.95 Q55.4881 1164.93 61.664 1164.93 Q62.9733 1164.93 64.3319 1165.3 Q65.7153 1165.64 67.4446 1167 Q69.1985 1168.36 70.2607 1170.58 Q72.2864 1174.88 72.2864 1182.44 Q72.2864 1189.83 70.409 1193.85 Q67.6669 1199.73 61.6146 1199.73 Q59.3419 1199.73 57.0197 1198.57 Q54.7223 1197.41 53.2648 1194.62 Q50.9921 1190.44 50.9921 1182.44 M55.1917 1181.82 Q55.1917 1189.46 55.7352 1192.49 Q56.3528 1195.78 58.0326 1197.21 Q59.7371 1198.62 61.6146 1198.62 Q63.6402 1198.62 65.3201 1197.11 Q67.0246 1195.58 67.5434 1192.3 Q68.1116 1189.06 68.0869 1181.82 Q68.0869 1174.78 67.5928 1171.97 Q66.9258 1168.68 65.1472 1167.37 Q63.3932 1166.04 61.6146 1166.04 Q60.9476 1166.04 60.2312 1166.23 Q59.5395 1166.43 58.5267 1167 Q57.5138 1167.57 56.7233 1168.98 Q55.9575 1170.38 55.587 1172.51 Q55.1917 1175.25 55.1917 1181.82 Z" fill="#000000" fill-rule="nonzero" fill-opacity="1" /><path clip-path="url(#clip860)" d="M79.3763 1197.81 Q78.6105 1196.99 78.6105 1195.93 Q78.6105 1194.87 79.3763 1194.1 Q80.1421 1193.31 81.3031 1193.31 Q82.4148 1193.31 83.1559 1194.05 Q83.9217 1194.77 83.9217 1195.95 Q83.9217 1197.11 83.1065 1197.88 Q82.316 1198.62 81.3031 1198.62 Q80.1421 1198.62 79.3763 1197.81 Z" fill="#000000" fill-rule="nonzero" fill-opacity="1" /><path clip-path="url(#clip860)" d="M90.8881 1190.47 Q90.8881 1188.96 91.7033 1188.39 Q92.5185 1187.8 93.3831 1187.8 Q94.5441 1187.8 95.2111 1188.54 Q95.9028 1189.26 95.9028 1190.27 Q95.9028 1191.28 95.2111 1192.03 Q94.5441 1192.74 93.3831 1192.74 Q92.8149 1192.74 92.5185 1192.64 Q93.1855 1194.96 95.2111 1196.64 Q97.2615 1198.32 99.9542 1198.32 Q103.339 1198.32 105.364 1195.04 Q106.575 1192.91 106.575 1188.1 Q106.575 1183.85 105.661 1181.72 Q104.253 1178.49 101.362 1178.49 Q97.2615 1178.49 94.8406 1182.02 Q94.5441 1182.46 94.1983 1182.49 Q93.7042 1182.49 93.5807 1182.22 Q93.4819 1181.92 93.4819 1181.16 L93.4819 1166.19 Q93.4819 1164.97 93.976 1164.97 Q94.1736 1164.97 94.5936 1165.12 Q97.7803 1166.53 101.313 1166.56 Q104.944 1166.56 108.205 1165.07 Q108.452 1164.93 108.6 1164.93 Q109.094 1164.93 109.119 1165.49 Q109.119 1165.69 108.699 1166.28 Q108.304 1166.85 107.439 1167.62 Q106.575 1168.36 105.463 1169.08 Q104.351 1169.79 102.721 1170.29 Q101.115 1170.76 99.3366 1170.76 Q97.2121 1170.76 95.0382 1170.09 L95.0382 1179.95 Q97.6568 1177.38 101.461 1177.38 Q105.512 1177.38 108.304 1180.64 Q111.095 1183.9 111.095 1188.44 Q111.095 1193.21 107.785 1196.47 Q104.5 1199.73 100.053 1199.73 Q96.0016 1199.73 93.4325 1196.84 Q90.8881 1193.95 90.8881 1190.47 Z" fill="#000000" fill-rule="nonzero" fill-opacity="1" /><path clip-path="url(#clip860)" d="M115.641 1182.44 Q115.641 1175 117.518 1170.95 Q120.137 1164.93 126.313 1164.93 Q127.622 1164.93 128.981 1165.3 Q130.364 1165.64 132.093 1167 Q133.847 1168.36 134.909 1170.58 Q136.935 1174.88 136.935 1182.44 Q136.935 1189.83 135.058 1193.85 Q132.316 1199.73 126.263 1199.73 Q123.991 1199.73 121.668 1198.57 Q119.371 1197.41 117.914 1194.62 Q115.641 1190.44 115.641 1182.44 M119.84 1181.82 Q119.84 1189.46 120.384 1192.49 Q121.001 1195.78 122.681 1197.21 Q124.386 1198.62 126.263 1198.62 Q128.289 1198.62 129.969 1197.11 Q131.673 1195.58 132.192 1192.3 Q132.76 1189.06 132.736 1181.82 Q132.736 1174.78 132.241 1171.97 Q131.574 1168.68 129.796 1167.37 Q128.042 1166.04 126.263 1166.04 Q125.596 1166.04 124.88 1166.23 Q124.188 1166.43 123.175 1167 Q122.163 1167.57 121.372 1168.98 Q120.606 1170.38 120.236 1172.51 Q119.84 1175.25 119.84 1181.82 Z" fill="#000000" fill-rule="nonzero" fill-opacity="1" /><path clip-path="url(#clip860)" d="M51.5356 983.64 Q51.5356 976.204 53.4131 972.153 Q56.0316 966.125 62.2075 966.125 Q63.5167 966.125 64.8754 966.496 Q66.2588 966.841 67.988 968.2 Q69.742 969.559 70.8042 971.782 Q72.8299 976.081 72.8299 983.64 Q72.8299 991.026 70.9524 995.053 Q68.2104 1000.93 62.158 1000.93 Q59.8853 1000.93 57.5632 999.771 Q55.2658 998.61 53.8083 995.819 Q51.5356 991.644 51.5356 983.64 M55.7352 983.022 Q55.7352 990.656 56.2786 993.694 Q56.8962 996.98 58.5761 998.412 Q60.2806 999.82 62.158 999.82 Q64.1837 999.82 65.8635 998.314 Q67.5681 996.782 68.0869 993.496 Q68.655 990.26 68.6303 983.022 Q68.6303 975.982 68.1363 973.166 Q67.4693 969.88 65.6906 968.571 Q63.9367 967.237 62.158 967.237 Q61.4911 967.237 60.7747 967.434 Q60.083 967.632 59.0701 968.2 Q58.0573 968.768 57.2668 970.176 Q56.501 971.585 56.1304 973.709 Q55.7352 976.451 55.7352 983.022 Z" fill="#000000" fill-rule="nonzero" fill-opacity="1" /><path clip-path="url(#clip860)" d="M79.9198 999.005 Q79.154 998.19 79.154 997.128 Q79.154 996.066 79.9198 995.3 Q80.6856 994.509 81.8466 994.509 Q82.9583 994.509 83.6994 995.25 Q84.4652 995.967 84.4652 997.153 Q84.4652 998.314 83.65 999.079 Q82.8595 999.82 81.8466 999.82 Q80.6856 999.82 79.9198 999.005 Z" fill="#000000" fill-rule="nonzero" fill-opacity="1" /><path clip-path="url(#clip860)" d="M91.7527 976.031 L93.4078 965.631 L94.6677 965.631 Q94.8159 966.249 95.0629 966.52 Q95.3347 966.792 96.7675 967.014 Q98.2249 967.237 101.165 967.237 L113.442 967.237 Q113.442 968.398 112.998 969.015 L106.155 978.625 Q103.981 981.664 103.017 987.271 Q102.449 991.026 102.474 995.571 L102.474 998.141 Q102.474 1000.93 100.127 1000.93 Q97.805 1000.93 97.805 998.141 Q97.805 988.482 104.03 979.119 Q104.697 978.156 107.143 974.722 Q109.613 971.288 109.712 971.14 L99.2378 971.14 Q94.643 971.14 94.2724 971.436 Q93.7783 971.881 93.0125 976.031 L91.7527 976.031 Z" fill="#000000" fill-rule="nonzero" fill-opacity="1" /><path clip-path="url(#clip860)" d="M116.728 991.668 Q116.728 990.161 117.543 989.593 Q118.358 989 119.223 989 Q120.384 989 121.051 989.742 Q121.743 990.458 121.743 991.471 Q121.743 992.484 121.051 993.225 Q120.384 993.941 119.223 993.941 Q118.655 993.941 118.358 993.842 Q119.025 996.164 121.051 997.844 Q123.101 999.524 125.794 999.524 Q129.178 999.524 131.204 996.238 Q132.414 994.114 132.414 989.297 Q132.414 985.048 131.5 982.923 Q130.092 979.687 127.202 979.687 Q123.101 979.687 120.68 983.22 Q120.384 983.664 120.038 983.689 Q119.544 983.689 119.42 983.417 Q119.322 983.121 119.322 982.355 L119.322 967.385 Q119.322 966.174 119.816 966.174 Q120.013 966.174 120.433 966.323 Q123.62 967.731 127.153 967.756 Q130.784 967.756 134.045 966.273 Q134.292 966.125 134.44 966.125 Q134.934 966.125 134.959 966.693 Q134.959 966.891 134.539 967.484 Q134.144 968.052 133.279 968.818 Q132.414 969.559 131.303 970.275 Q130.191 970.992 128.561 971.486 Q126.955 971.955 125.176 971.955 Q123.052 971.955 120.878 971.288 L120.878 981.145 Q123.496 978.576 127.301 978.576 Q131.352 978.576 134.144 981.836 Q136.935 985.097 136.935 989.643 Q136.935 994.41 133.625 997.671 Q130.339 1000.93 125.893 1000.93 Q121.841 1000.93 119.272 998.042 Q116.728 995.152 116.728 991.668 Z" fill="#000000" fill-rule="nonzero" fill-opacity="1" /><path clip-path="url(#clip860)" d="M53.5119 772.142 L53.5119 770.561 Q59.5889 770.561 62.7262 767.325 Q63.5908 767.325 63.7391 767.522 Q63.8873 767.72 63.8873 768.634 L63.8873 797.018 Q63.8873 798.525 64.6284 798.994 Q65.3695 799.464 68.6056 799.464 L70.2113 799.464 L70.2113 801.02 Q68.4327 800.872 62.0098 800.872 Q55.587 800.872 53.833 801.02 L53.833 799.464 L55.4387 799.464 Q58.6255 799.464 59.3913 799.019 Q60.1571 798.55 60.1571 797.018 L60.1571 770.808 Q57.5138 772.142 53.5119 772.142 Z" fill="#000000" fill-rule="nonzero" fill-opacity="1" /><path clip-path="url(#clip860)" d="M79.3763 800.205 Q78.6105 799.39 78.6105 798.327 Q78.6105 797.265 79.3763 796.499 Q80.1421 795.709 81.3031 795.709 Q82.4148 795.709 83.1559 796.45 Q83.9217 797.166 83.9217 798.352 Q83.9217 799.513 83.1065 800.279 Q82.316 801.02 81.3031 801.02 Q80.1421 801.02 79.3763 800.205 Z" fill="#000000" fill-rule="nonzero" fill-opacity="1" /><path clip-path="url(#clip860)" d="M90.3446 784.839 Q90.3446 777.404 92.222 773.352 Q94.8406 767.325 101.016 767.325 Q102.326 767.325 103.684 767.695 Q105.068 768.041 106.797 769.4 Q108.551 770.759 109.613 772.982 Q111.639 777.28 111.639 784.839 Q111.639 792.226 109.761 796.252 Q107.019 802.132 100.967 802.132 Q98.6943 802.132 96.3722 800.971 Q94.0748 799.81 92.6173 797.018 Q90.3446 792.843 90.3446 784.839 M94.5441 784.222 Q94.5441 791.855 95.0876 794.894 Q95.7052 798.179 97.385 799.612 Q99.0896 801.02 100.967 801.02 Q102.993 801.02 104.673 799.513 Q106.377 797.982 106.896 794.696 Q107.464 791.46 107.439 784.222 Q107.439 777.181 106.945 774.365 Q106.278 771.08 104.5 769.77 Q102.746 768.436 100.967 768.436 Q100.3 768.436 99.5836 768.634 Q98.8919 768.832 97.8791 769.4 Q96.8663 769.968 96.0758 771.376 Q95.31 772.784 94.9394 774.909 Q94.5441 777.651 94.5441 784.222 Z" fill="#000000" fill-rule="nonzero" fill-opacity="1" /><path clip-path="url(#clip860)" d="M115.641 784.839 Q115.641 777.404 117.518 773.352 Q120.137 767.325 126.313 767.325 Q127.622 767.325 128.981 767.695 Q130.364 768.041 132.093 769.4 Q133.847 770.759 134.909 772.982 Q136.935 777.28 136.935 784.839 Q136.935 792.226 135.058 796.252 Q132.316 802.132 126.263 802.132 Q123.991 802.132 121.668 800.971 Q119.371 799.81 117.914 797.018 Q115.641 792.843 115.641 784.839 M119.84 784.222 Q119.84 791.855 120.384 794.894 Q121.001 798.179 122.681 799.612 Q124.386 801.02 126.263 801.02 Q128.289 801.02 129.969 799.513 Q131.673 797.982 132.192 794.696 Q132.76 791.46 132.736 784.222 Q132.736 777.181 132.241 774.365 Q131.574 771.08 129.796 769.77 Q128.042 768.436 126.263 768.436 Q125.596 768.436 124.88 768.634 Q124.188 768.832 123.175 769.4 Q122.163 769.968 121.372 771.376 Q120.606 772.784 120.236 774.909 Q119.84 777.651 119.84 784.222 Z" fill="#000000" fill-rule="nonzero" fill-opacity="1" /><path clip-path="url(#clip860)" d="M54.0553 573.342 L54.0553 571.761 Q60.1324 571.761 63.2697 568.524 Q64.1343 568.524 64.2825 568.722 Q64.4308 568.92 64.4308 569.834 L64.4308 598.218 Q64.4308 599.725 65.1719 600.194 Q65.913 600.663 69.1491 600.663 L70.7548 600.663 L70.7548 602.22 Q68.9762 602.072 62.5533 602.072 Q56.1304 602.072 54.3765 602.22 L54.3765 600.663 L55.9822 600.663 Q59.1689 600.663 59.9347 600.219 Q60.7005 599.749 60.7005 598.218 L60.7005 572.008 Q58.0573 573.342 54.0553 573.342 Z" fill="#000000" fill-rule="nonzero" fill-opacity="1" /><path clip-path="url(#clip860)" d="M79.9198 601.405 Q79.154 600.589 79.154 599.527 Q79.154 598.465 79.9198 597.699 Q80.6856 596.909 81.8466 596.909 Q82.9583 596.909 83.6994 597.65 Q84.4652 598.366 84.4652 599.552 Q84.4652 600.713 83.65 601.479 Q82.8595 602.22 81.8466 602.22 Q80.6856 602.22 79.9198 601.405 Z" fill="#000000" fill-rule="nonzero" fill-opacity="1" /><path clip-path="url(#clip860)" d="M91.4315 602.22 Q91.4315 601.306 91.5056 601.034 Q91.6044 600.762 91.9997 600.342 L101.708 589.522 Q107.019 583.544 107.019 578.332 Q107.019 574.947 105.241 572.526 Q103.487 570.105 100.251 570.105 Q98.0273 570.105 96.1499 571.464 Q94.2724 572.823 93.4078 575.244 Q93.556 575.194 94.0748 575.194 Q95.3347 575.194 96.0264 575.985 Q96.7427 576.775 96.7427 577.838 Q96.7427 579.196 95.8534 579.863 Q94.9888 580.506 94.1242 580.506 Q93.7783 580.506 93.309 580.431 Q92.8643 580.357 92.1479 579.666 Q91.4315 578.949 91.4315 577.689 Q91.4315 574.157 94.0995 571.341 Q96.7922 568.524 100.893 568.524 Q105.537 568.524 108.576 571.291 Q111.639 574.033 111.639 578.332 Q111.639 579.839 111.17 581.222 Q110.725 582.581 110.107 583.643 Q109.514 584.705 107.884 586.41 Q106.254 588.114 104.944 589.325 Q103.635 590.535 100.695 593.104 L95.3347 598.317 L104.45 598.317 Q108.897 598.317 109.243 597.921 Q109.737 597.205 110.354 593.425 L111.639 593.425 L110.206 602.22 L91.4315 602.22 Z" fill="#000000" fill-rule="nonzero" fill-opacity="1" /><path clip-path="url(#clip860)" d="M116.728 594.068 Q116.728 592.561 117.543 591.993 Q118.358 591.4 119.223 591.4 Q120.384 591.4 121.051 592.141 Q121.743 592.857 121.743 593.87 Q121.743 594.883 121.051 595.624 Q120.384 596.34 119.223 596.34 Q118.655 596.34 118.358 596.242 Q119.025 598.564 121.051 600.244 Q123.101 601.923 125.794 601.923 Q129.178 601.923 131.204 598.638 Q132.414 596.513 132.414 591.696 Q132.414 587.447 131.5 585.323 Q130.092 582.087 127.202 582.087 Q123.101 582.087 120.68 585.619 Q120.384 586.064 120.038 586.089 Q119.544 586.089 119.42 585.817 Q119.322 585.52 119.322 584.755 L119.322 569.784 Q119.322 568.574 119.816 568.574 Q120.013 568.574 120.433 568.722 Q123.62 570.13 127.153 570.155 Q130.784 570.155 134.045 568.673 Q134.292 568.524 134.44 568.524 Q134.934 568.524 134.959 569.093 Q134.959 569.29 134.539 569.883 Q134.144 570.451 133.279 571.217 Q132.414 571.958 131.303 572.675 Q130.191 573.391 128.561 573.885 Q126.955 574.354 125.176 574.354 Q123.052 574.354 120.878 573.687 L120.878 583.544 Q123.496 580.975 127.301 580.975 Q131.352 580.975 134.144 584.236 Q136.935 587.497 136.935 592.042 Q136.935 596.81 133.625 600.071 Q130.339 603.331 125.893 603.331 Q121.841 603.331 119.272 600.441 Q116.728 597.551 116.728 594.068 Z" fill="#000000" fill-rule="nonzero" fill-opacity="1" /><path clip-path="url(#clip860)" d="M53.5119 374.541 L53.5119 372.96 Q59.5889 372.96 62.7262 369.724 Q63.5908 369.724 63.7391 369.922 Q63.8873 370.119 63.8873 371.033 L63.8873 399.418 Q63.8873 400.924 64.6284 401.394 Q65.3695 401.863 68.6056 401.863 L70.2113 401.863 L70.2113 403.419 Q68.4327 403.271 62.0098 403.271 Q55.587 403.271 53.833 403.419 L53.833 401.863 L55.4387 401.863 Q58.6255 401.863 59.3913 401.419 Q60.1571 400.949 60.1571 399.418 L60.1571 373.207 Q57.5138 374.541 53.5119 374.541 Z" fill="#000000" fill-rule="nonzero" fill-opacity="1" /><path clip-path="url(#clip860)" d="M79.3763 402.604 Q78.6105 401.789 78.6105 400.727 Q78.6105 399.665 79.3763 398.899 Q80.1421 398.108 81.3031 398.108 Q82.4148 398.108 83.1559 398.849 Q83.9217 399.566 83.9217 400.752 Q83.9217 401.913 83.1065 402.678 Q82.316 403.419 81.3031 403.419 Q80.1421 403.419 79.3763 402.604 Z" fill="#000000" fill-rule="nonzero" fill-opacity="1" /><path clip-path="url(#clip860)" d="M90.8881 395.267 Q90.8881 393.76 91.7033 393.192 Q92.5185 392.599 93.3831 392.599 Q94.5441 392.599 95.2111 393.341 Q95.9028 394.057 95.9028 395.07 Q95.9028 396.083 95.2111 396.824 Q94.5441 397.54 93.3831 397.54 Q92.8149 397.54 92.5185 397.441 Q93.1855 399.763 95.2111 401.443 Q97.2615 403.123 99.9542 403.123 Q103.339 403.123 105.364 399.837 Q106.575 397.713 106.575 392.896 Q106.575 388.647 105.661 386.522 Q104.253 383.286 101.362 383.286 Q97.2615 383.286 94.8406 386.819 Q94.5441 387.263 94.1983 387.288 Q93.7042 387.288 93.5807 387.016 Q93.4819 386.72 93.4819 385.954 L93.4819 370.984 Q93.4819 369.774 93.976 369.774 Q94.1736 369.774 94.5936 369.922 Q97.7803 371.33 101.313 371.355 Q104.944 371.355 108.205 369.872 Q108.452 369.724 108.6 369.724 Q109.094 369.724 109.119 370.292 Q109.119 370.49 108.699 371.083 Q108.304 371.651 107.439 372.417 Q106.575 373.158 105.463 373.874 Q104.351 374.591 102.721 375.085 Q101.115 375.554 99.3366 375.554 Q97.2121 375.554 95.0382 374.887 L95.0382 384.744 Q97.6568 382.175 101.461 382.175 Q105.512 382.175 108.304 385.435 Q111.095 388.696 111.095 393.242 Q111.095 398.009 107.785 401.27 Q104.5 404.531 100.053 404.531 Q96.0016 404.531 93.4325 401.641 Q90.8881 398.751 90.8881 395.267 Z" fill="#000000" fill-rule="nonzero" fill-opacity="1" /><path clip-path="url(#clip860)" d="M115.641 387.239 Q115.641 379.803 117.518 375.752 Q120.137 369.724 126.313 369.724 Q127.622 369.724 128.981 370.095 Q130.364 370.44 132.093 371.799 Q133.847 373.158 134.909 375.381 Q136.935 379.68 136.935 387.239 Q136.935 394.625 135.058 398.652 Q132.316 404.531 126.263 404.531 Q123.991 404.531 121.668 403.37 Q119.371 402.209 117.914 399.418 Q115.641 395.243 115.641 387.239 M119.84 386.621 Q119.84 394.255 120.384 397.293 Q121.001 400.579 122.681 402.011 Q124.386 403.419 126.263 403.419 Q128.289 403.419 129.969 401.913 Q131.673 400.381 132.192 397.095 Q132.76 393.859 132.736 386.621 Q132.736 379.581 132.241 376.765 Q131.574 373.479 129.796 372.17 Q128.042 370.836 126.263 370.836 Q125.596 370.836 124.88 371.033 Q124.188 371.231 123.175 371.799 Q122.163 372.367 121.372 373.775 Q120.606 375.184 120.236 377.308 Q119.84 380.05 119.84 386.621 Z" fill="#000000" fill-rule="nonzero" fill-opacity="1" /><path clip-path="url(#clip860)" d="M54.0553 175.741 L54.0553 174.16 Q60.1324 174.16 63.2697 170.924 Q64.1343 170.924 64.2825 171.121 Q64.4308 171.319 64.4308 172.233 L64.4308 200.617 Q64.4308 202.124 65.1719 202.593 Q65.913 203.063 69.1491 203.063 L70.7548 203.063 L70.7548 204.619 Q68.9762 204.471 62.5533 204.471 Q56.1304 204.471 54.3765 204.619 L54.3765 203.063 L55.9822 203.063 Q59.1689 203.063 59.9347 202.618 Q60.7005 202.149 60.7005 200.617 L60.7005 174.407 Q58.0573 175.741 54.0553 175.741 Z" fill="#000000" fill-rule="nonzero" fill-opacity="1" /><path clip-path="url(#clip860)" d="M79.9198 203.804 Q79.154 202.989 79.154 201.926 Q79.154 200.864 79.9198 200.098 Q80.6856 199.308 81.8466 199.308 Q82.9583 199.308 83.6994 200.049 Q84.4652 200.765 84.4652 201.951 Q84.4652 203.112 83.65 203.878 Q82.8595 204.619 81.8466 204.619 Q80.6856 204.619 79.9198 203.804 Z" fill="#000000" fill-rule="nonzero" fill-opacity="1" /><path clip-path="url(#clip860)" d="M91.7527 180.83 L93.4078 170.43 L94.6677 170.43 Q94.8159 171.047 95.0629 171.319 Q95.3347 171.591 96.7675 171.813 Q98.2249 172.035 101.165 172.035 L113.442 172.035 Q113.442 173.196 112.998 173.814 L106.155 183.424 Q103.981 186.462 103.017 192.07 Q102.449 195.825 102.474 200.37 L102.474 202.939 Q102.474 205.731 100.127 205.731 Q97.805 205.731 97.805 202.939 Q97.805 193.28 104.03 183.918 Q104.697 182.954 107.143 179.521 Q109.613 176.087 109.712 175.939 L99.2378 175.939 Q94.643 175.939 94.2724 176.235 Q93.7783 176.68 93.0125 180.83 L91.7527 180.83 Z" fill="#000000" fill-rule="nonzero" fill-opacity="1" /><path clip-path="url(#clip860)" d="M116.728 196.467 Q116.728 194.96 117.543 194.392 Q118.358 193.799 119.223 193.799 Q120.384 193.799 121.051 194.54 Q121.743 195.257 121.743 196.269 Q121.743 197.282 121.051 198.023 Q120.384 198.74 119.223 198.74 Q118.655 198.74 118.358 198.641 Q119.025 200.963 121.051 202.643 Q123.101 204.323 125.794 204.323 Q129.178 204.323 131.204 201.037 Q132.414 198.913 132.414 194.096 Q132.414 189.847 131.5 187.722 Q130.092 184.486 127.202 184.486 Q123.101 184.486 120.68 188.018 Q120.384 188.463 120.038 188.488 Q119.544 188.488 119.42 188.216 Q119.322 187.92 119.322 187.154 L119.322 172.184 Q119.322 170.973 119.816 170.973 Q120.013 170.973 120.433 171.121 Q123.62 172.529 127.153 172.554 Q130.784 172.554 134.045 171.072 Q134.292 170.924 134.44 170.924 Q134.934 170.924 134.959 171.492 Q134.959 171.69 134.539 172.282 Q134.144 172.851 133.279 173.616 Q132.414 174.358 131.303 175.074 Q130.191 175.79 128.561 176.284 Q126.955 176.754 125.176 176.754 Q123.052 176.754 120.878 176.087 L120.878 185.943 Q123.496 183.374 127.301 183.374 Q131.352 183.374 134.144 186.635 Q136.935 189.896 136.935 194.441 Q136.935 199.209 133.625 202.47 Q130.339 205.731 125.893 205.731 Q121.841 205.731 119.272 202.841 Q116.728 199.95 116.728 196.467 Z" fill="#000000" fill-rule="nonzero" fill-opacity="1" /><polyline clip-path="url(#clip862)" style="stroke:#d77255; stroke-linecap:round; stroke-linejoin:round; stroke-width:5.6; stroke-opacity:1; fill:none" points="225.075,830.94 244.387,1445.72 263.698,1429.29 283.009,1421.77 302.32,1404.1 321.632,1392.42 340.943,1189.88 360.254,1370.77 379.565,1361.4 398.876,1349.2 418.188,1328.88 437.499,1115.33 456.81,1307.25 476.121,1284.54 495.433,1277.34 514.744,1081.89 534.055,1205.85 553.366,1243.65 572.678,1216.5 591.989,1028.59 611.3,1178.59 630.611,1205.75 649.922,1192.57 669.234,956.466 688.545,1172.1 707.856,1157.92 727.167,922.681 746.479,1136.05 765.79,1122.21 785.101,884.033 804.412,1101.01 823.723,893.526 843.035,1042.34 862.346,1054.72 881.657,808.008 900.968,1031.63 920.28,805.936 939.591,991.846 958.902,807.732 978.213,943.675 997.525,970.469 1016.84,731.266 1036.15,944.355 1055.46,720.184 1074.77,926.036 1094.08,692.458 1113.39,721.023 1132.7,847.255 1152.01,682.037 1171.33,844.206 1190.64,603.361 1209.95,843.414 1229.26,610.232 1248.57,807.413 1267.88,593.455 1287.19,546.823 1306.5,786.706 1325.82,547.856 1345.13,547.046 1364.44,738.263 1383.75,503.966 1403.06,507.53 1422.37,649.566 1441.68,469.278 1460.99,470.933 1480.31,668.832 1499.62,442.733 1518.93,428.185 1538.24,447.282 1557.55,589.771 1576.86,391.821 1596.17,369.578 1615.48,402.557 1634.79,531.046 1654.11,342.851 1673.42,326.06 1692.73,293.765 1712.04,350.467 1731.35,470.137 1750.66,224.517 1769.97,227.802 1789.28,215.662 1808.6,185.693 1827.91,206.818 1847.22,371.245 1866.53,172.334 1885.84,191.367 1905.15,169.733 1924.46,155.943 1943.77,132.805 1963.09,87.9763 "/>
<path clip-path="url(#clip860)" d="M2087.89 198.898 L2352.76 198.898 L2352.76 95.2176 L2087.89 95.2176  Z" fill="#ffffff" fill-rule="evenodd" fill-opacity="1"/>
<polyline clip-path="url(#clip860)" style="stroke:#000000; stroke-linecap:round; stroke-linejoin:round; stroke-width:4; stroke-opacity:1; fill:none" points="2087.89,198.898 2352.76,198.898 2352.76,95.2176 2087.89,95.2176 2087.89,198.898 "/>
<polyline clip-path="url(#clip860)" style="stroke:#d77255; stroke-linecap:round; stroke-linejoin:round; stroke-width:5.6; stroke-opacity:1; fill:none" points="2112.11,147.058 2257.43,147.058 "/>
<path clip-path="url(#clip860)" d="M2281.65 170.612 Q2281.65 169.55 2282.27 168.982 Q2282.91 168.438 2283.77 168.438 Q2284.69 168.438 2285.28 169.006 Q2285.9 169.599 2285.9 170.563 Q2285.9 172.44 2283.92 172.687 Q2284.88 173.601 2286.29 173.601 Q2287.8 173.601 2289.01 172.49 Q2290.25 171.378 2290.76 170.316 Q2291.31 169.254 2292.07 167.327 Q2292.79 165.82 2293.33 164.338 L2285.75 145.859 Q2285.26 144.649 2284.49 144.377 Q2283.72 144.106 2281.65 144.106 L2281.65 142.524 Q2283.92 142.673 2286.56 142.673 Q2288.12 142.673 2292.07 142.524 L2292.07 144.106 Q2289.23 144.106 2289.23 145.415 Q2289.23 145.563 2289.53 146.329 L2295.16 159.94 L2300.28 147.49 Q2300.57 146.773 2300.57 146.279 Q2300.57 144.204 2298.2 144.106 L2298.2 142.524 Q2301.53 142.673 2302.6 142.673 Q2304.67 142.673 2306.38 142.524 L2306.38 144.106 Q2302.99 144.106 2301.68 147.342 L2292.77 168.932 Q2290.34 174.688 2286.29 174.713 Q2284.37 174.713 2283.01 173.527 Q2281.65 172.341 2281.65 170.612 Z" fill="#000000" fill-rule="nonzero" fill-opacity="1" /><path clip-path="url(#clip860)" d="M2311.84 135.459 L2311.84 133.878 Q2317.91 133.878 2321.05 130.642 Q2321.92 130.642 2322.06 130.84 Q2322.21 131.037 2322.21 131.951 L2322.21 160.336 Q2322.21 161.843 2322.95 162.312 Q2323.69 162.781 2326.93 162.781 L2328.54 162.781 L2328.54 164.338 Q2326.76 164.189 2320.33 164.189 Q2313.91 164.189 2312.16 164.338 L2312.16 162.781 L2313.76 162.781 Q2316.95 162.781 2317.72 162.337 Q2318.48 161.867 2318.48 160.336 L2318.48 134.125 Q2315.84 135.459 2311.84 135.459 Z" fill="#000000" fill-rule="nonzero" fill-opacity="1" /></svg>
