<?xml version="1.0" encoding="UTF-8" standalone="no"?>
<!-- Created with Inkscape (http://www.inkscape.org/) -->

<svg
   width="74.999001mm"
   height="69.990005mm"
   viewBox="0 0 74.999001 69.990005"
   version="1.1"
   id="svg5"
   inkscape:version="1.2.2 (b0a8486541, 2022-12-01)"
   sodipodi:docname="Homodyne.svg"
   inkscape:export-filename="Homodyne.pdf"
   inkscape:export-xdpi="96"
   inkscape:export-ydpi="96"
   xmlns:inkscape="http://www.inkscape.org/namespaces/inkscape"
   xmlns:sodipodi="http://sodipodi.sourceforge.net/DTD/sodipodi-0.dtd"
   xmlns="http://www.w3.org/2000/svg"
   xmlns:svg="http://www.w3.org/2000/svg">
  <sodipodi:namedview
     id="namedview7"
     pagecolor="#ffffff"
     bordercolor="#ffffff"
     borderopacity="1"
     inkscape:showpageshadow="0"
     inkscape:pageopacity="1"
     inkscape:pagecheckerboard="1"
     inkscape:deskcolor="#505050"
     inkscape:document-units="mm"
     showgrid="false"
     inkscape:zoom="1.4142136"
     inkscape:cx="162.63456"
     inkscape:cy="113.13708"
     inkscape:window-width="1646"
     inkscape:window-height="894"
     inkscape:window-x="66"
     inkscape:window-y="32"
     inkscape:window-maximized="1"
     inkscape:current-layer="layer1" />
  <defs
     id="defs2">
    <marker
       style="overflow:visible"
       id="Arrow3"
       refX="0"
       refY="0"
       orient="auto-start-reverse"
       inkscape:stockid="Arrow3"
       markerWidth="4.2071066"
       markerHeight="6.9999995"
       viewBox="0 0 4.2071068 7"
       inkscape:isstock="true"
       inkscape:collect="always"
       preserveAspectRatio="xMidYMid">
      <path
         style="fill:none;stroke:context-stroke;stroke-width:1;stroke-linecap:round"
         d="m -2.75,3 3,-3 -3,-3"
         id="arrow3"
         sodipodi:nodetypes="ccc" />
    </marker>
    <clipPath
       id="clipPath7896">
      <path
         clip-rule="nonzero"
         d="M 0,2 H 5 V 6.917969 H 0 Z m 0,0"
         id="path6222" />
    </clipPath>
    <clipPath
       id="clipPath9460">
      <path
         clip-rule="nonzero"
         d="M 0,2 H 4.277344 V 9.546875 H 0 Z m 0,0"
         id="path3735" />
    </clipPath>
    <clipPath
       id="clipPath3059">
      <path
         clip-rule="nonzero"
         d="M 1,0 H 4.3125 V 2 H 1 Z m 0,0"
         id="path2540" />
    </clipPath>
    <clipPath
       id="clipPath6361">
      <path
         clip-rule="nonzero"
         d="M 0,2 H 4.3125 V 6.917969 H 0 Z m 0,0"
         id="path211" />
    </clipPath>
    <clipPath
       id="clipPath4107">
      <path
         clip-rule="nonzero"
         d="M 2,0 H 5.183594 V 2 H 2 Z m 0,0"
         id="path4391" />
    </clipPath>
    <clipPath
       id="clipPath4247">
      <path
         clip-rule="nonzero"
         d="M 0,2 H 5.183594 V 9.546875 H 0 Z m 0,0"
         id="path9218" />
    </clipPath>
    <clipPath
       id="clipPath4574">
      <path
         clip-rule="nonzero"
         d="M 4,5 H 8 V 8.300781 H 4 Z m 0,0"
         id="path4848" />
    </clipPath>
    <clipPath
       id="clipPath8941">
      <path
         clip-rule="nonzero"
         d="M 4,3 H 9 V 8.300781 H 4 Z m 0,0"
         id="path1066" />
    </clipPath>
    <clipPath
       id="clipPath9408">
      <path
         clip-rule="nonzero"
         d="M 4,3 H 9 V 8.300781 H 4 Z m 0,0"
         id="path4212" />
    </clipPath>
    <clipPath
       id="clipPath6530">
      <path
         clip-rule="nonzero"
         d="m 26,5 h 3.640625 V 8.300781 H 26 Z m 0,0"
         id="path6979" />
    </clipPath>
  </defs>
  <g
     inkscape:label="Calque 1"
     inkscape:groupmode="layer"
     id="layer1"
     transform="translate(-26.871,-32.76)">
    <g
       id="g2501"
       transform="matrix(1.1561718,0,0,1.1561718,-9.1878328,-9.6674597)">
      <path
         style="fill:none;stroke:#000000;stroke-width:0.352777;stroke-dasharray:1.41111, 1.41111;stroke-dashoffset:0;stroke-opacity:1"
         d="M 48.640217,71.126767 65.640725,54.145631"
         id="path2443"
         sodipodi:nodetypes="cc" />
      <rect
         style="fill:none;stroke:#000000;stroke-width:0.352777;stroke-dasharray:none;stroke-dashoffset:1.37333;stroke-opacity:1"
         id="rect1850"
         width="16.94569"
         height="16.94569"
         x="48.664551"
         y="54.168278" />
    </g>
    <path
       style="fill:none;stroke:#000000;stroke-width:0.260627;stroke-dasharray:none;stroke-dashoffset:1.37333;stroke-opacity:1;marker-mid:url(#Arrow3)"
       d="M 56.872813,72.75 V 82.750001 92.75"
       id="path1870"
       sodipodi:nodetypes="ccc"
       inkscape:label="path1870" />
    <path
       style="fill:none;stroke:#000000;stroke-width:0.260627;stroke-dasharray:none;stroke-dashoffset:1.37333;stroke-opacity:1;marker-mid:url(#Arrow3)"
       d="M 56.872813,32.76 V 42.760001 52.76"
       id="path2507"
       sodipodi:nodetypes="ccc"
       inkscape:label="path1870" />
    <path
       style="fill:none;stroke:#000000;stroke-width:0.260627;stroke-dasharray:none;stroke-dashoffset:1.37333;stroke-opacity:1;marker-mid:url(#Arrow3)"
       d="m 26.871,62.75644 h 9.999996 9.999999"
       id="path2520"
       sodipodi:nodetypes="ccc"
       inkscape:label="path1870" />
    <path
       style="fill:none;stroke:#000000;stroke-width:0.260627;stroke-dasharray:none;stroke-dashoffset:1.37333;stroke-opacity:1;marker-mid:url(#Arrow3)"
       d="m 66.87,62.75644 h 9.999996 9.999999"
       id="path2522"
       sodipodi:nodetypes="ccc"
       inkscape:label="path1870" />
    <rect
       style="fill:none;stroke:#000000;stroke-width:0.203936;stroke-dasharray:none;stroke-dashoffset:1.37333;stroke-opacity:1"
       id="rect2552"
       width="9.7960644"
       height="9.7960644"
       x="51.974781"
       y="92.851967" />
    <rect
       style="fill:none;stroke:#000000;stroke-width:0.203936;stroke-dasharray:none;stroke-dashoffset:1.37333;stroke-opacity:1"
       id="rect2574"
       width="9.7960644"
       height="9.7960644"
       x="86.97197"
       y="57.858406" />
    <g
       inkscape:label=""
       transform="translate(60.721925,41.539063)"
       id="g2645">
      <g
         fill="#000000"
         fill-opacity="1"
         id="g17"
         transform="matrix(0.352778,0,0,0.352778,-0.143316,0.00136694)">
        <g
           id="use15"
           transform="translate(0.142,6.9180002)">
          <path
             d="M 2.5,-6.921875 1.15625,-5.5625 1.328125,-5.390625 2.5,-6.40625 3.640625,-5.390625 3.8125,-5.5625 Z m 0,0"
             id="path29" />
        </g>
      </g>
      <g
         clip-path="url(#clipPath7896)"
         id="g23"
         transform="matrix(0.352778,0,0,0.352778,-0.143316,0.00136694)">
        <g
           fill="#000000"
           fill-opacity="1"
           id="g21">
          <g
             id="use19"
             transform="translate(0,6.9180002)">
            <path
               d="M 3.71875,-3.765625 C 3.53125,-4.140625 3.25,-4.40625 2.796875,-4.40625 c -1.15625,0 -2.390625,1.46875 -2.390625,2.921875 0,0.9375 0.546875,1.59375 1.3125,1.59375 0.203125,0 0.703125,-0.046875 1.296875,-0.75 0.078125,0.421875 0.4375,0.75 0.90625,0.75 0.359375,0 0.578125,-0.234375 0.75,-0.546875 0.15625,-0.359375 0.296875,-0.96875 0.296875,-0.984375 0,-0.109375 -0.09375,-0.109375 -0.125,-0.109375 -0.09375,0 -0.109375,0.046875 -0.140625,0.1875 -0.171875,0.640625 -0.34375,1.234375 -0.75,1.234375 -0.28125,0 -0.296875,-0.265625 -0.296875,-0.453125 0,-0.21875 0.015625,-0.3125 0.125,-0.75 C 3.890625,-1.71875 3.90625,-1.828125 4,-2.203125 L 4.359375,-3.59375 c 0.0625,-0.28125 0.0625,-0.296875 0.0625,-0.34375 0,-0.171875 -0.109375,-0.265625 -0.28125,-0.265625 -0.25,0 -0.390625,0.21875 -0.421875,0.4375 z M 3.078125,-1.1875 C 3.015625,-1 3.015625,-0.984375 2.875,-0.8125 2.4375,-0.265625 2.03125,-0.109375 1.75,-0.109375 c -0.5,0 -0.640625,-0.546875 -0.640625,-0.9375 0,-0.5 0.3125,-1.71875 0.546875,-2.1875 0.3125,-0.578125 0.75,-0.953125 1.15625,-0.953125 0.640625,0 0.78125,0.8125 0.78125,0.875 0,0.0625 -0.015625,0.125 -0.03125,0.171875 z m 0,0"
               id="path33" />
          </g>
        </g>
      </g>
    </g>
    <g
       inkscape:label=""
       transform="translate(36.223319,56.488542)"
       id="g2731">
      <g
         fill="#000000"
         fill-opacity="1"
         id="g2721"
         transform="matrix(0.352778,0,0,0.352778,-0.165365,0.00101418)">
        <g
           id="g2719"
           transform="translate(-0.35299999,6.9190001)">
          <path
             d="M 2.5,-6.921875 1.15625,-5.5625 1.328125,-5.390625 2.5,-6.40625 3.640625,-5.390625 3.8125,-5.5625 Z m 0,0"
             id="path2717" />
        </g>
      </g>
      <g
         clip-path="url(#clipPath9460)"
         id="g2729"
         transform="matrix(0.352778,0,0,0.352778,-0.165365,0.00101418)">
        <g
           fill="#000000"
           fill-opacity="1"
           id="g2727">
          <g
             id="g2725"
             transform="translate(0,9.5480003)">
            <path
               d="m 2.375,-6.8125 c 0,0 0,-0.109375 -0.125,-0.109375 -0.21875,0 -0.953125,0.078125 -1.21875,0.109375 -0.078125,0 -0.1875,0.015625 -0.1875,0.1875 0,0.125 0.09375,0.125 0.25,0.125 0.46875,0 0.484375,0.0625 0.484375,0.171875 0,0.0625 -0.078125,0.40625 -0.125,0.609375 l -0.828125,3.25 c -0.109375,0.5 -0.15625,0.671875 -0.15625,1.015625 0,0.9375 0.53125,1.5625 1.265625,1.5625 1.171875,0 2.40625,-1.484375 2.40625,-2.921875 0,-0.90625 -0.53125,-1.59375 -1.328125,-1.59375 -0.453125,0 -0.875,0.296875 -1.171875,0.59375 z M 1.453125,-3.046875 C 1.5,-3.265625 1.5,-3.28125 1.59375,-3.390625 2.078125,-4.03125 2.53125,-4.1875 2.796875,-4.1875 c 0.359375,0 0.625,0.296875 0.625,0.9375 0,0.59375 -0.328125,1.734375 -0.515625,2.109375 -0.328125,0.671875 -0.78125,1.03125 -1.171875,1.03125 -0.34375,0 -0.671875,-0.265625 -0.671875,-1 0,-0.203125 0,-0.390625 0.15625,-1.015625 z m 0,0"
               id="path2723" />
          </g>
        </g>
      </g>
    </g>
    <g
       inkscape:label=""
       transform="translate(60.192758,81.528379)"
       id="g2833">
      <g
         clip-path="url(#clipPath3059)"
         id="g22"
         transform="matrix(0.352778,0,0,0.352778,-0.143316,0.00136694)">
        <g
           fill="#000000"
           fill-opacity="1"
           id="g20">
          <g
             id="use18"
             transform="translate(0.219,6.9180002)">
            <path
               d="M 2.5,-6.921875 1.15625,-5.5625 1.328125,-5.390625 2.5,-6.40625 3.640625,-5.390625 3.8125,-5.5625 Z m 0,0"
               id="path34" />
          </g>
        </g>
      </g>
      <g
         clip-path="url(#clipPath6361)"
         id="g28"
         transform="matrix(0.352778,0,0,0.352778,-0.143316,0.00136694)">
        <g
           fill="#000000"
           fill-opacity="1"
           id="g26">
          <g
             id="use24"
             transform="translate(0,6.9180002)">
            <path
               d="m 3.953125,-3.78125 c -0.171875,0 -0.296875,0 -0.4375,0.125 -0.171875,0.15625 -0.1875,0.328125 -0.1875,0.390625 0,0.25 0.1875,0.359375 0.375,0.359375 0.28125,0 0.546875,-0.25 0.546875,-0.640625 0,-0.484375 -0.46875,-0.859375 -1.171875,-0.859375 -1.34375,0 -2.671875,1.421875 -2.671875,2.828125 0,0.90625 0.578125,1.6875 1.625,1.6875 1.421875,0 2.25,-1.0625 2.25,-1.171875 0,-0.0625 -0.046875,-0.140625 -0.109375,-0.140625 -0.0625,0 -0.078125,0.03125 -0.140625,0.109375 -0.78125,0.984375 -1.875,0.984375 -1.984375,0.984375 -0.625,0 -0.90625,-0.484375 -0.90625,-1.09375 0,-0.40625 0.203125,-1.375 0.546875,-1.984375 0.3125,-0.578125 0.859375,-1 1.40625,-1 0.328125,0 0.71875,0.125 0.859375,0.40625 z m 0,0"
               id="path38" />
          </g>
        </g>
      </g>
    </g>
    <g
       inkscape:label=""
       transform="translate(76.027327,55.297916)"
       id="g2972">
      <g
         clip-path="url(#clipPath4107)"
         id="g2962"
         transform="matrix(0.352778,0,0,0.352778,-0.143316,0.00101418)">
        <g
           fill="#000000"
           fill-opacity="1"
           id="g2960">
          <g
             id="g2958"
             transform="translate(1.763,6.9190001)">
            <path
               d="M 2.5,-6.921875 1.15625,-5.5625 1.328125,-5.390625 2.5,-6.40625 3.640625,-5.390625 3.8125,-5.5625 Z m 0,0"
               id="path2956" />
          </g>
        </g>
      </g>
      <g
         clip-path="url(#clipPath4247)"
         id="g2970"
         transform="matrix(0.352778,0,0,0.352778,-0.143316,0.00101418)">
        <g
           fill="#000000"
           fill-opacity="1"
           id="g2968">
          <g
             id="g2966"
             transform="translate(0,9.5480003)">
            <path
               d="m 5.140625,-6.8125 c 0,0 0,-0.109375 -0.125,-0.109375 -0.15625,0 -1.09375,0.09375 -1.265625,0.109375 -0.078125,0.015625 -0.140625,0.0625 -0.140625,0.1875 0,0.125 0.09375,0.125 0.234375,0.125 0.484375,0 0.5,0.0625 0.5,0.171875 L 4.3125,-6.125 3.71875,-3.765625 C 3.53125,-4.140625 3.25,-4.40625 2.796875,-4.40625 c -1.15625,0 -2.390625,1.46875 -2.390625,2.921875 0,0.9375 0.546875,1.59375 1.3125,1.59375 0.203125,0 0.703125,-0.046875 1.296875,-0.75 0.078125,0.421875 0.4375,0.75 0.90625,0.75 0.359375,0 0.578125,-0.234375 0.75,-0.546875 0.15625,-0.359375 0.296875,-0.96875 0.296875,-0.984375 0,-0.109375 -0.09375,-0.109375 -0.125,-0.109375 -0.09375,0 -0.109375,0.046875 -0.140625,0.1875 -0.171875,0.640625 -0.34375,1.234375 -0.75,1.234375 -0.28125,0 -0.296875,-0.265625 -0.296875,-0.453125 0,-0.25 0.015625,-0.3125 0.046875,-0.484375 z m -2.0625,5.625 C 3.015625,-1 3.015625,-0.984375 2.875,-0.8125 2.4375,-0.265625 2.03125,-0.109375 1.75,-0.109375 c -0.5,0 -0.640625,-0.546875 -0.640625,-0.9375 0,-0.5 0.3125,-1.71875 0.546875,-2.1875 0.3125,-0.578125 0.75,-0.953125 1.15625,-0.953125 0.640625,0 0.78125,0.8125 0.78125,0.875 0,0.0625 -0.015625,0.125 -0.03125,0.171875 z m 0,0"
               id="path2964" />
          </g>
        </g>
      </g>
    </g>
    <g
       inkscape:label=""
       transform="translate(55.551946,96.285039)"
       id="g3133">
      <g
         fill="#000000"
         fill-opacity="1"
         id="g3123"
         transform="matrix(0.352778,0,0,0.352778,-0.121267,0.00158747)">
        <g
           id="g3121"
           transform="translate(0,6.8080001)">
          <path
             d="M 3.734375,-6.046875 C 3.8125,-6.40625 3.84375,-6.5 4.640625,-6.5 c 0.234375,0 0.3125,0 0.3125,-0.1875 0,-0.125 -0.109375,-0.125 -0.140625,-0.125 -0.296875,0 -1.03125,0.03125 -1.328125,0.03125 -0.296875,0 -1.015625,-0.03125 -1.328125,-0.03125 -0.0625,0 -0.1875,0 -0.1875,0.203125 C 1.96875,-6.5 2.046875,-6.5 2.25,-6.5 c 0.40625,0 0.6875,0 0.6875,0.1875 0,0.046875 0,0.078125 -0.03125,0.15625 l -1.34375,5.375 c -0.09375,0.375 -0.109375,0.46875 -0.90625,0.46875 -0.234375,0 -0.3125,0 -0.3125,0.203125 C 0.34375,0 0.453125,0 0.484375,0 0.78125,0 1.5,-0.03125 1.796875,-0.03125 2.09375,-0.03125 2.828125,0 3.125,0 c 0.078125,0 0.203125,0 0.203125,-0.1875 0,-0.125 -0.078125,-0.125 -0.296875,-0.125 -0.1875,0 -0.234375,0 -0.421875,-0.015625 -0.21875,-0.015625 -0.25,-0.0625 -0.25,-0.171875 0,-0.078125 0.015625,-0.15625 0.03125,-0.234375 z m 0,0"
             id="path3119" />
        </g>
      </g>
      <g
         clip-path="url(#clipPath4574)"
         id="g3131"
         transform="matrix(0.352778,0,0,0.352778,-0.121267,0.00158747)">
        <g
           fill="#000000"
           fill-opacity="1"
           id="g3129">
          <g
             id="g3127"
             transform="translate(4.3790002,8.302)">
            <path
               d="m 3.046875,-2.671875 c -0.25,0.046875 -0.34375,0.234375 -0.34375,0.390625 0,0.1875 0.140625,0.265625 0.265625,0.265625 0.15625,0 0.390625,-0.109375 0.390625,-0.453125 0,-0.46875 -0.53125,-0.609375 -0.90625,-0.609375 -1.046875,0 -2.015625,0.96875 -2.015625,1.9375 0,0.59375 0.40625,1.203125 1.28125,1.203125 1.1875,0 1.734375,-0.6875 1.734375,-0.78125 0,-0.046875 -0.0625,-0.125 -0.125,-0.125 -0.03125,0 -0.046875,0.015625 -0.109375,0.078125 C 2.671875,-0.125 1.859375,-0.125 1.734375,-0.125 c -0.5,0 -0.71875,-0.34375 -0.71875,-0.78125 0,-0.1875 0.09375,-0.953125 0.453125,-1.4375 0.265625,-0.34375 0.625,-0.53125 0.984375,-0.53125 0.09375,0 0.421875,0.015625 0.59375,0.203125 z m 0,0"
               id="path3125" />
          </g>
        </g>
      </g>
    </g>
    <g
       inkscape:label=""
       transform="translate(90.452672,61.291478)"
       id="g3311">
      <g
         fill="#000000"
         fill-opacity="1"
         id="g3301"
         transform="matrix(0.352778,0,0,0.352778,-0.121267,0.00158747)">
        <g
           id="g3299"
           transform="translate(0,6.8080001)">
          <path
             d="M 3.734375,-6.046875 C 3.8125,-6.40625 3.84375,-6.5 4.640625,-6.5 c 0.234375,0 0.3125,0 0.3125,-0.1875 0,-0.125 -0.109375,-0.125 -0.140625,-0.125 -0.296875,0 -1.03125,0.03125 -1.328125,0.03125 -0.296875,0 -1.015625,-0.03125 -1.328125,-0.03125 -0.0625,0 -0.1875,0 -0.1875,0.203125 C 1.96875,-6.5 2.046875,-6.5 2.25,-6.5 c 0.40625,0 0.6875,0 0.6875,0.1875 0,0.046875 0,0.078125 -0.03125,0.15625 l -1.34375,5.375 c -0.09375,0.375 -0.109375,0.46875 -0.90625,0.46875 -0.234375,0 -0.3125,0 -0.3125,0.203125 C 0.34375,0 0.453125,0 0.484375,0 0.78125,0 1.5,-0.03125 1.796875,-0.03125 2.09375,-0.03125 2.828125,0 3.125,0 c 0.078125,0 0.203125,0 0.203125,-0.1875 0,-0.125 -0.078125,-0.125 -0.296875,-0.125 -0.1875,0 -0.234375,0 -0.421875,-0.015625 -0.21875,-0.015625 -0.25,-0.0625 -0.25,-0.171875 0,-0.078125 0.015625,-0.15625 0.03125,-0.234375 z m 0,0"
             id="path3297" />
        </g>
      </g>
      <g
         clip-path="url(#clipPath8941)"
         id="g3309"
         transform="matrix(0.352778,0,0,0.352778,-0.121267,0.00158747)">
        <g
           fill="#000000"
           fill-opacity="1"
           id="g3307">
          <g
             id="g3305"
             transform="translate(4.3790002,8.302)">
            <path
               d="M 3.984375,-4.625 C 3.984375,-4.640625 4,-4.734375 4,-4.734375 4,-4.78125 3.984375,-4.84375 3.890625,-4.84375 3.75,-4.84375 3.171875,-4.78125 3,-4.765625 c -0.046875,0 -0.15625,0.015625 -0.15625,0.15625 0,0.09375 0.109375,0.09375 0.1875,0.09375 0.328125,0 0.328125,0.0625 0.328125,0.109375 0,0.046875 0,0.09375 -0.015625,0.15625 L 2.9375,-2.65625 c -0.140625,-0.234375 -0.375,-0.421875 -0.71875,-0.421875 -0.890625,0 -1.796875,0.984375 -1.796875,1.984375 0,0.6875 0.453125,1.15625 1.0625,1.15625 0.375,0 0.703125,-0.203125 0.984375,-0.484375 C 2.59375,0 3,0.0625 3.1875,0.0625 c 0.25,0 0.421875,-0.140625 0.546875,-0.359375 0.15625,-0.28125 0.25,-0.671875 0.25,-0.703125 0,-0.09375 -0.09375,-0.09375 -0.109375,-0.09375 -0.109375,0 -0.109375,0.03125 -0.15625,0.21875 C 3.625,-0.53125 3.5,-0.125 3.203125,-0.125 3.03125,-0.125 2.96875,-0.28125 2.96875,-0.46875 c 0,-0.125 0.015625,-0.1875 0.046875,-0.28125 z M 2.5,-0.875 C 2.453125,-0.671875 2.296875,-0.53125 2.140625,-0.40625 2.078125,-0.34375 1.796875,-0.125 1.5,-0.125 c -0.265625,0 -0.515625,-0.1875 -0.515625,-0.671875 0,-0.375 0.203125,-1.140625 0.375,-1.421875 0.3125,-0.5625 0.671875,-0.65625 0.859375,-0.65625 0.484375,0 0.625,0.53125 0.625,0.609375 0,0.015625 -0.015625,0.078125 -0.015625,0.09375 z m 0,0"
               id="path3303" />
          </g>
        </g>
      </g>
    </g>
    <g
       inkscape:label=""
       transform="translate(86.809331,96.285043)"
       id="g3516">
      <g
         fill="#000000"
         fill-opacity="1"
         id="g3500"
         transform="matrix(0.352778,0,0,0.352778,-0.121267,0.00158747)">
        <g
           id="g3498"
           transform="translate(0,6.8080001)">
          <path
             d="M 3.734375,-6.046875 C 3.8125,-6.40625 3.84375,-6.5 4.640625,-6.5 c 0.234375,0 0.3125,0 0.3125,-0.1875 0,-0.125 -0.109375,-0.125 -0.140625,-0.125 -0.296875,0 -1.03125,0.03125 -1.328125,0.03125 -0.296875,0 -1.015625,-0.03125 -1.328125,-0.03125 -0.0625,0 -0.1875,0 -0.1875,0.203125 C 1.96875,-6.5 2.046875,-6.5 2.25,-6.5 c 0.40625,0 0.6875,0 0.6875,0.1875 0,0.046875 0,0.078125 -0.03125,0.15625 l -1.34375,5.375 c -0.09375,0.375 -0.109375,0.46875 -0.90625,0.46875 -0.234375,0 -0.3125,0 -0.3125,0.203125 C 0.34375,0 0.453125,0 0.484375,0 0.78125,0 1.5,-0.03125 1.796875,-0.03125 2.09375,-0.03125 2.828125,0 3.125,0 c 0.078125,0 0.203125,0 0.203125,-0.1875 0,-0.125 -0.078125,-0.125 -0.296875,-0.125 -0.1875,0 -0.234375,0 -0.421875,-0.015625 -0.21875,-0.015625 -0.25,-0.0625 -0.25,-0.171875 0,-0.078125 0.015625,-0.15625 0.03125,-0.234375 z m 0,0"
             id="path52" />
        </g>
      </g>
      <g
         clip-path="url(#clipPath9408)"
         id="g32"
         transform="matrix(0.352778,0,0,0.352778,-0.121267,0.00158747)">
        <g
           fill="#000000"
           fill-opacity="1"
           id="g30">
          <g
             id="use28"
             transform="translate(4.3790002,8.302)">
            <path
               d="M 3.984375,-4.625 C 3.984375,-4.640625 4,-4.734375 4,-4.734375 4,-4.78125 3.984375,-4.84375 3.890625,-4.84375 3.75,-4.84375 3.171875,-4.78125 3,-4.765625 c -0.046875,0 -0.15625,0.015625 -0.15625,0.15625 0,0.09375 0.109375,0.09375 0.1875,0.09375 0.328125,0 0.328125,0.0625 0.328125,0.109375 0,0.046875 0,0.09375 -0.015625,0.15625 L 2.9375,-2.65625 c -0.140625,-0.234375 -0.375,-0.421875 -0.71875,-0.421875 -0.890625,0 -1.796875,0.984375 -1.796875,1.984375 0,0.6875 0.453125,1.15625 1.0625,1.15625 0.375,0 0.703125,-0.203125 0.984375,-0.484375 C 2.59375,0 3,0.0625 3.1875,0.0625 c 0.25,0 0.421875,-0.140625 0.546875,-0.359375 0.15625,-0.28125 0.25,-0.671875 0.25,-0.703125 0,-0.09375 -0.09375,-0.09375 -0.109375,-0.09375 -0.109375,0 -0.109375,0.03125 -0.15625,0.21875 C 3.625,-0.53125 3.5,-0.125 3.203125,-0.125 3.03125,-0.125 2.96875,-0.28125 2.96875,-0.46875 c 0,-0.125 0.015625,-0.1875 0.046875,-0.28125 z M 2.5,-0.875 C 2.453125,-0.671875 2.296875,-0.53125 2.140625,-0.40625 2.078125,-0.34375 1.796875,-0.125 1.5,-0.125 c -0.265625,0 -0.515625,-0.1875 -0.515625,-0.671875 0,-0.375 0.203125,-1.140625 0.375,-1.421875 0.3125,-0.5625 0.671875,-0.65625 0.859375,-0.65625 0.484375,0 0.625,0.53125 0.625,0.609375 0,0.015625 -0.015625,0.078125 -0.015625,0.09375 z m 0,0"
               id="path56" />
          </g>
        </g>
      </g>
      <g
         fill="#000000"
         fill-opacity="1"
         id="g36"
         transform="matrix(0.352778,0,0,0.352778,-0.121267,0.00158747)">
        <g
           id="use34"
           transform="translate(11.239,6.8080001)">
          <path
             d="m 6.5625,-2.296875 c 0.171875,0 0.359375,0 0.359375,-0.203125 0,-0.1875 -0.1875,-0.1875 -0.359375,-0.1875 H 1.171875 c -0.171875,0 -0.34375,0 -0.34375,0.1875 0,0.203125 0.171875,0.203125 0.34375,0.203125 z m 0,0"
             id="path60" />
        </g>
      </g>
      <g
         fill="#000000"
         fill-opacity="1"
         id="g40"
         transform="matrix(0.352778,0,0,0.352778,-0.121267,0.00158747)">
        <g
           id="use38"
           transform="translate(21.201,6.8080001)">
          <path
             d="M 3.734375,-6.046875 C 3.8125,-6.40625 3.84375,-6.5 4.640625,-6.5 c 0.234375,0 0.3125,0 0.3125,-0.1875 0,-0.125 -0.109375,-0.125 -0.140625,-0.125 -0.296875,0 -1.03125,0.03125 -1.328125,0.03125 -0.296875,0 -1.015625,-0.03125 -1.328125,-0.03125 -0.0625,0 -0.1875,0 -0.1875,0.203125 C 1.96875,-6.5 2.046875,-6.5 2.25,-6.5 c 0.40625,0 0.6875,0 0.6875,0.1875 0,0.046875 0,0.078125 -0.03125,0.15625 l -1.34375,5.375 c -0.09375,0.375 -0.109375,0.46875 -0.90625,0.46875 -0.234375,0 -0.3125,0 -0.3125,0.203125 C 0.34375,0 0.453125,0 0.484375,0 0.78125,0 1.5,-0.03125 1.796875,-0.03125 2.09375,-0.03125 2.828125,0 3.125,0 c 0.078125,0 0.203125,0 0.203125,-0.1875 0,-0.125 -0.078125,-0.125 -0.296875,-0.125 -0.1875,0 -0.234375,0 -0.421875,-0.015625 -0.21875,-0.015625 -0.25,-0.0625 -0.25,-0.171875 0,-0.078125 0.015625,-0.15625 0.03125,-0.234375 z m 0,0"
             id="path64" />
        </g>
      </g>
      <g
         clip-path="url(#clipPath6530)"
         id="g46"
         transform="matrix(0.352778,0,0,0.352778,-0.121267,0.00158747)">
        <g
           fill="#000000"
           fill-opacity="1"
           id="g44">
          <g
             id="use42"
             transform="translate(25.580999,8.302)">
            <path
               d="m 3.046875,-2.671875 c -0.25,0.046875 -0.34375,0.234375 -0.34375,0.390625 0,0.1875 0.140625,0.265625 0.265625,0.265625 0.15625,0 0.390625,-0.109375 0.390625,-0.453125 0,-0.46875 -0.53125,-0.609375 -0.90625,-0.609375 -1.046875,0 -2.015625,0.96875 -2.015625,1.9375 0,0.59375 0.40625,1.203125 1.28125,1.203125 1.1875,0 1.734375,-0.6875 1.734375,-0.78125 0,-0.046875 -0.0625,-0.125 -0.125,-0.125 -0.03125,0 -0.046875,0.015625 -0.109375,0.078125 C 2.671875,-0.125 1.859375,-0.125 1.734375,-0.125 c -0.5,0 -0.71875,-0.34375 -0.71875,-0.78125 0,-0.1875 0.09375,-0.953125 0.453125,-1.4375 0.265625,-0.34375 0.625,-0.53125 0.984375,-0.53125 0.09375,0 0.421875,0.015625 0.59375,0.203125 z m 0,0"
               id="path68" />
          </g>
        </g>
      </g>
    </g>
    <rect
       style="fill:none;stroke:#000000;stroke-width:0.221796;stroke-dasharray:none;stroke-dashoffset:0;stroke-opacity:1"
       id="rect3859"
       width="19.778204"
       height="9.778204"
       x="81.980896"
       y="92.860901" />
    <path
       style="fill:none;stroke:#000000;stroke-width:0.260627;stroke-dasharray:none;stroke-dashoffset:1.37333;stroke-opacity:1;marker-mid:url(#Arrow3)"
       d="m 61.87,97.749999 h 9.999996 9.999999"
       id="path3861"
       sodipodi:nodetypes="ccc"
       inkscape:label="path1870" />
    <path
       style="fill:none;stroke:#000000;stroke-width:0.291417;stroke-dasharray:none;stroke-dashoffset:1.37333;stroke-opacity:1;marker-mid:url(#Arrow3)"
       d="m 91.870002,67.755 v 12.502312 12.50231"
       id="path3968"
       sodipodi:nodetypes="ccc"
       inkscape:label="path1870" />
  </g>
</svg>
